<svg width="20" height="16" viewBox="0 0 20 16" fill="none" xmlns="http://www.w3.org/2000/svg">
<path d="M0.0622299 8.346C1.77323 13 5.67523 16 10.0002 16C14.3252 16 18.2272 13 19.9382 8.346C20.0212 8.1228 20.0212 7.87721 19.9382 7.654C18.2272 3 14.3252 0 10.0002 0C5.67523 0 1.77323 3 0.0622299 7.654C-0.0207433 7.87721 -0.0207433 8.1228 0.0622299 8.346ZM10.0002 2C13.3732 2 16.4512 4.343 17.9292 8C16.4512 11.657 13.3732 14 10.0002 14C6.62723 14 3.54923 11.657 2.07123 8C3.54923 4.343 6.62723 2 10.0002 2ZM10.0002 12C10.7914 12 11.5647 11.7654 12.2225 11.3259C12.8803 10.8864 13.393 10.2616 13.6957 9.53073C13.9985 8.79983 14.0777 7.99556 13.9234 7.21964C13.769 6.44371 13.3881 5.73098 12.8287 5.17157C12.2692 4.61216 11.5565 4.2312 10.7806 4.07686C10.0047 3.92252 9.2004 4.00173 8.4695 4.30448C7.73859 4.60723 7.11388 5.11992 6.67435 5.77772C6.23483 6.43552 6.00023 7.20887 6.00023 8C6.00023 9.06087 6.42166 10.0783 7.1718 10.8284C7.92195 11.5786 8.93936 12 10.0002 12ZM10.0002 6C10.3958 6 10.7825 6.1173 11.1114 6.33706C11.4403 6.55682 11.6966 6.86918 11.848 7.23463C11.9994 7.60009 12.039 8.00222 11.9618 8.39018C11.8846 8.77814 11.6941 9.13451 11.4144 9.41421C11.1347 9.69392 10.7784 9.8844 10.3904 9.96157C10.0024 10.0387 9.60032 9.99913 9.23486 9.84776C8.86941 9.69638 8.55705 9.44004 8.33729 9.11114C8.11753 8.78224 8.00023 8.39556 8.00023 8C8.00023 7.46957 8.21094 6.96086 8.58602 6.58579C8.96109 6.21071 9.4698 6 10.0002 6Z" fill="#718096"/>
</svg>
