<svg width="256" height="76" viewBox="0 0 256 76" fill="none" xmlns="http://www.w3.org/2000/svg">
<path d="M246.562 75.5H9.43806C4.49968 75.5 0.5 71.5313 0.5 66.6312V9.36879C0.5 4.46868 4.49968 0.5 9.43806 0.5H246.562C251.5 0.5 255.5 4.46868 255.5 9.36879V66.6312C255.5 71.5313 251.5 75.5 246.562 75.5Z" fill="black"/>
<path d="M253.827 66.631C253.827 70.5997 250.603 73.7989 246.603 73.7989H9.47957C5.47989 73.7989 2.21484 70.5997 2.21484 66.631V9.36858C2.21484 5.3999 5.47989 2.16016 9.47957 2.16016H246.603C250.603 2.16016 253.868 5.3594 253.868 9.36858L253.827 66.631Z" fill="black"/>
<path d="M57.4339 37.596C57.3931 31.562 62.4131 28.6057 62.6579 28.4843C59.801 24.3536 55.3932 23.7866 53.8015 23.7461C50.0875 23.3412 46.496 25.9735 44.5778 25.9735C42.6595 25.9735 39.721 23.7866 36.5784 23.8676C32.5379 23.9486 28.7423 26.2569 26.6608 29.8612C22.3754 37.2316 25.5589 48.0442 29.681 53.9567C31.7216 56.8725 34.1296 60.1122 37.2722 59.9907C40.3332 59.8693 41.476 58.0469 45.1899 58.0469C48.8631 58.0469 49.9243 59.9907 53.1485 59.9097C56.4544 59.8693 58.5358 56.994 60.4948 54.0377C62.862 50.717 63.8007 47.3963 63.8415 47.2343C63.8415 47.2343 57.5155 44.845 57.4339 37.596ZM51.3935 19.818C53.0261 17.7526 54.1688 14.9988 53.8423 12.1641C51.4343 12.2856 48.455 13.8244 46.7408 15.8088C45.2308 17.5906 43.8431 20.4659 44.2104 23.1792C46.9041 23.3817 49.6794 21.8428 51.3935 19.818Z" fill="white"/>
<path d="M101.92 59.5838H97.6347L95.2675 52.2539H87.1049L84.8602 59.5838H80.6973L88.7783 34.6378H93.7983L101.92 59.5838ZM94.5737 49.1761L92.4514 42.6561C92.2066 42.0082 91.7984 40.4288 91.1862 37.9585H91.1046C90.8597 39.0114 90.4516 40.5908 89.921 42.6561L87.8396 49.1761H94.5737ZM122.694 50.3505C122.694 53.4283 121.837 55.8176 120.164 57.5994C118.653 59.1788 116.817 59.9888 114.572 59.9888C112.164 59.9888 110.45 59.1383 109.389 57.4375V66.8732H105.389V47.4753C105.389 45.5719 105.348 43.5876 105.226 41.5627H108.777L109.022 44.3975H109.103C110.45 42.2512 112.491 41.1578 115.225 41.1578C117.347 41.1578 119.143 42.0082 120.572 43.6686C122 45.4099 122.694 47.6372 122.694 50.3505ZM118.613 50.5125C118.613 48.7712 118.204 47.3133 117.429 46.1794C116.572 45.005 115.388 44.3975 113.919 44.3975C112.94 44.3975 112.042 44.7215 111.225 45.3694C110.409 46.0174 109.879 46.8678 109.634 47.9612C109.511 48.3662 109.47 48.7712 109.43 49.1761V52.1729C109.43 53.4688 109.838 54.6027 110.654 55.4936C111.47 56.3845 112.531 56.83 113.797 56.83C115.307 56.83 116.49 56.2631 117.347 55.0886C118.204 53.9547 118.613 52.4159 118.613 50.5125ZM143.59 50.3505C143.59 53.4283 142.733 55.8176 141.06 57.5994C139.55 59.1788 137.713 59.9888 135.468 59.9888C133.06 59.9888 131.346 59.1383 130.285 57.4375V66.8732H126.245V47.4753C126.245 45.5719 126.204 43.5876 126.081 41.5627H129.632L129.877 44.3975H129.959C131.305 42.2512 133.346 41.1578 136.081 41.1578C138.203 41.1578 139.999 42.0082 141.427 43.6686C142.856 45.4099 143.59 47.6372 143.59 50.3505ZM139.468 50.5125C139.468 48.7712 139.06 47.3133 138.284 46.1794C137.427 45.005 136.244 44.3975 134.775 44.3975C133.795 44.3975 132.897 44.7215 132.081 45.3694C131.265 46.0174 130.734 46.8678 130.489 47.9612C130.367 48.4472 130.285 48.8521 130.285 49.1761V52.1729C130.285 53.4688 130.693 54.6027 131.51 55.4936C132.326 56.3845 133.387 56.83 134.652 56.83C136.162 56.83 137.346 56.2631 138.203 55.0886C139.06 53.9547 139.468 52.4159 139.468 50.5125ZM166.894 52.5779C166.894 54.6837 166.16 56.425 164.65 57.7614C163.017 59.2193 160.732 59.9483 157.793 59.9483C155.099 59.9483 152.936 59.4218 151.263 58.4094L152.202 55.0886C153.957 56.1416 155.916 56.6275 158.038 56.6275C159.548 56.6275 160.732 56.3036 161.589 55.6151C162.446 54.9267 162.854 54.0357 162.854 52.9018C162.854 51.8894 162.487 51.039 161.793 50.3505C161.099 49.6621 159.956 49.0141 158.324 48.4067C153.916 46.7868 151.712 44.3975 151.712 41.2388C151.712 39.1734 152.487 37.5131 154.038 36.2172C155.589 34.9213 157.671 34.2733 160.201 34.2733C162.487 34.2733 164.405 34.6783 165.915 35.4477L164.895 38.6875C163.466 37.918 161.874 37.5536 160.079 37.5536C158.65 37.5536 157.548 37.918 156.732 38.6065C156.079 39.2139 155.712 39.9834 155.712 40.8743C155.712 41.8462 156.079 42.6966 156.854 43.3041C157.507 43.9115 158.732 44.519 160.528 45.2479C162.691 46.0984 164.282 47.1108 165.303 48.2852C166.405 49.4191 166.894 50.8365 166.894 52.5779ZM180.24 44.6H175.792V53.3473C175.792 55.5746 176.567 56.668 178.159 56.668C178.893 56.668 179.465 56.6275 179.955 56.4655L180.077 59.5028C179.302 59.7863 178.24 59.9483 176.934 59.9483C175.343 59.9483 174.118 59.4623 173.22 58.4904C172.323 57.5185 171.874 55.8986 171.874 53.6308V44.5595H169.221V41.5627H171.874V38.2825L175.833 37.1081V41.6032H180.281L180.24 44.6ZM200.239 50.4315C200.239 53.1853 199.422 55.4531 197.831 57.235C196.157 59.0573 193.954 59.9888 191.178 59.9888C188.525 59.9888 186.403 59.0978 184.811 57.3565C183.22 55.6151 182.444 53.3878 182.444 50.715C182.444 47.9207 183.26 45.6529 184.893 43.871C186.526 42.0892 188.729 41.1983 191.464 41.1983C194.117 41.1983 196.28 42.0892 197.872 43.8305C199.463 45.5314 200.239 47.7587 200.239 50.4315ZM196.076 50.5125C196.076 48.8521 195.708 47.4348 195.015 46.2604C194.158 44.843 192.974 44.114 191.382 44.114C189.75 44.114 188.525 44.843 187.668 46.2604C186.934 47.4348 186.607 48.8926 186.607 50.5935C186.607 52.2539 186.974 53.6713 187.668 54.8457C188.525 56.2631 189.75 56.992 191.341 56.992C192.892 56.992 194.076 56.2631 194.974 54.8052C195.708 53.5903 196.076 52.1729 196.076 50.5125ZM213.34 45.0859C212.932 45.005 212.483 44.9645 212.075 44.9645C210.646 44.9645 209.544 45.4909 208.809 46.5438C208.156 47.4753 207.789 48.6497 207.789 50.1075V59.5433H203.749V47.2323C203.749 45.3289 203.708 43.4661 203.626 41.5627H207.136L207.299 45.005H207.422C207.83 43.8306 208.524 42.8586 209.422 42.1702C210.279 41.5627 211.299 41.1983 212.319 41.1983C212.687 41.1983 213.013 41.2388 213.34 41.2793V45.0859ZM231.379 49.7431C231.379 50.3505 231.338 50.958 231.216 51.5654H219.135C219.176 53.3473 219.747 54.7242 220.89 55.6556C221.91 56.506 223.216 56.911 224.849 56.911C226.645 56.911 228.277 56.6275 229.747 56.0606L230.359 58.8144C228.645 59.5433 226.604 59.9078 224.278 59.9078C221.462 59.9078 219.258 59.0978 217.666 57.4375C216.074 55.7771 215.258 53.5903 215.258 50.8365C215.258 48.1232 215.993 45.8554 217.503 44.0735C219.054 42.1297 221.176 41.1983 223.829 41.1983C226.441 41.1983 228.441 42.1702 229.747 44.0735C230.849 45.6124 231.379 47.4753 231.379 49.7431ZM227.543 48.6902C227.583 47.5158 227.298 46.4628 226.767 45.6124C226.073 44.4785 225.012 43.952 223.543 43.952C222.237 43.952 221.135 44.4785 220.319 45.5719C219.666 46.4223 219.258 47.4753 219.135 48.6902H227.543ZM85.9621 25.8095C84.8602 25.8095 83.8807 25.769 83.0644 25.6475V13.5795C84.2072 13.4175 85.35 13.3365 86.4927 13.3365C91.1046 13.3365 93.2269 15.6043 93.2269 19.2895C93.2269 23.5012 90.6965 25.8095 85.9621 25.8095ZM86.6152 14.8754C86.003 14.8754 85.4724 14.9159 85.0235 14.9969V24.1491C85.2683 24.1896 85.7173 24.1896 86.3703 24.1896C89.3904 24.1896 91.1046 22.4888 91.1046 19.2895C91.1046 16.4547 89.5537 14.8754 86.6152 14.8754ZM99.8386 25.8905C97.2266 25.8905 95.5532 23.9466 95.5532 21.3548C95.5532 18.6416 97.2674 16.6977 100.002 16.6977C102.573 16.6977 104.287 18.5201 104.287 21.2334C104.287 23.9466 102.491 25.8905 99.8386 25.8905ZM99.9202 18.1151C98.4918 18.1151 97.5531 19.4515 97.5531 21.3143C97.5531 23.1367 98.4918 24.4731 99.8794 24.4731C101.267 24.4731 102.206 23.0557 102.206 21.2739C102.247 19.4515 101.308 18.1151 99.9202 18.1151ZM119.143 16.8597L116.368 25.688H114.531L113.389 21.8408C113.103 20.9094 112.858 19.9375 112.654 18.9655H112.613C112.45 19.9375 112.205 20.9094 111.878 21.8408L110.654 25.688H108.817L106.205 16.8597H108.246L109.266 21.0714C109.511 22.0838 109.715 23.0152 109.879 23.9061H109.919C110.083 23.1772 110.287 22.2458 110.654 21.0714L111.919 16.8597H113.552L114.776 20.9904C115.062 22.0028 115.307 22.9747 115.511 23.9061H115.552C115.674 23.0152 115.878 22.0433 116.164 20.9904L117.266 16.8597H119.143ZM129.387 25.688H127.428V20.6259C127.428 19.0465 126.816 18.2771 125.632 18.2771C124.449 18.2771 123.633 19.2895 123.633 20.4234V25.688H121.633V19.3705C121.633 18.6011 121.633 17.7506 121.551 16.8597H123.306L123.388 18.2366H123.429C123.959 17.3052 125.061 16.6977 126.245 16.6977C128.122 16.6977 129.346 18.1151 129.346 20.4234L129.387 25.688ZM134.856 25.688H132.856V12.7695H134.856V25.688ZM142.08 25.8905C139.468 25.8905 137.795 23.9466 137.795 21.3548C137.795 18.6416 139.509 16.6977 142.243 16.6977C144.815 16.6977 146.529 18.5201 146.529 21.2334C146.529 23.9466 144.733 25.8905 142.08 25.8905ZM142.162 18.1151C140.733 18.1151 139.795 19.4515 139.795 21.3143C139.795 23.1367 140.733 24.4731 142.121 24.4731C143.509 24.4731 144.447 23.0557 144.447 21.2739C144.447 19.4515 143.549 18.1151 142.162 18.1151ZM154.324 25.688L154.161 24.6756H154.12C153.508 25.4855 152.651 25.8905 151.508 25.8905C149.916 25.8905 148.773 24.7971 148.773 23.2987C148.773 21.1119 150.692 19.978 153.998 19.978V19.816C153.998 18.6416 153.385 18.0746 152.161 18.0746C151.263 18.0746 150.528 18.2771 149.835 18.7226L149.426 17.4267C150.243 16.9002 151.263 16.6572 152.487 16.6572C154.814 16.6572 155.997 17.8721 155.997 20.3019V23.5417C155.997 24.4326 156.038 25.121 156.12 25.6475L154.324 25.688ZM154.038 21.2739C151.834 21.2739 150.732 21.8003 150.732 23.0557C150.732 23.9871 151.304 24.4326 152.079 24.4326C153.1 24.4326 154.038 23.6632 154.038 22.6507V21.2739ZM165.588 25.688L165.507 24.2706H165.466C164.895 25.3235 163.956 25.8905 162.609 25.8905C160.446 25.8905 158.854 24.0276 158.854 21.3953C158.854 18.6416 160.487 16.6977 162.772 16.6977C163.956 16.6977 164.813 17.1027 165.303 17.9126H165.344V12.7695H167.343V23.2987C167.343 24.1491 167.384 24.9591 167.425 25.688H165.588ZM165.303 20.5044C165.303 19.249 164.486 18.1961 163.221 18.1961C161.752 18.1961 160.854 19.492 160.854 21.3143C160.854 23.0962 161.793 24.3111 163.18 24.3111C164.446 24.3111 165.303 23.2177 165.303 21.9623V20.5044ZM179.873 25.8905C177.261 25.8905 175.588 23.9466 175.588 21.3548C175.588 18.6416 177.302 16.6977 180.036 16.6977C182.607 16.6977 184.322 18.5201 184.322 21.2334C184.322 23.9466 182.526 25.8905 179.873 25.8905ZM179.955 18.1151C178.526 18.1151 177.628 19.4515 177.628 21.3143C177.628 23.1367 178.567 24.4731 179.955 24.4731C181.342 24.4731 182.281 23.0557 182.281 21.2739C182.24 19.4515 181.342 18.1151 179.955 18.1151ZM194.974 25.688H192.974V20.6259C192.974 19.0465 192.362 18.2771 191.178 18.2771C189.995 18.2771 189.219 19.2895 189.219 20.4234V25.688H187.219V19.3705C187.219 18.6011 187.219 17.7506 187.138 16.8597H188.893L188.974 18.2366H189.015C189.546 17.3052 190.648 16.6977 191.831 16.6977C193.709 16.6977 194.933 18.1151 194.933 20.4234V25.688H194.974ZM208.279 18.3176H206.116V22.6102C206.116 23.7037 206.483 24.2301 207.259 24.2301C207.626 24.2301 207.912 24.1896 208.156 24.1491L208.197 25.6475C207.83 25.8095 207.299 25.85 206.646 25.85C205.095 25.85 204.157 24.9996 204.157 22.7722V18.3176H202.851V16.8597H204.157V15.2398L206.116 14.6729V16.8597H208.279V18.3176ZM218.768 25.688H216.809V20.6664C216.809 19.087 216.197 18.2771 215.013 18.2771C213.993 18.2771 213.013 18.9655 213.013 20.3829V25.7285H211.054V12.7695H213.013V18.0746H213.054C213.666 17.1027 214.564 16.6167 215.748 16.6167C217.625 16.6167 218.768 18.0746 218.768 20.3829V25.688ZM229.502 21.7598H223.543C223.584 23.4202 224.686 24.3921 226.359 24.3921C227.257 24.3921 228.032 24.2301 228.767 23.9871L229.094 25.364C228.236 25.7285 227.257 25.8905 226.114 25.8905C223.339 25.8905 221.666 24.1491 221.666 21.4358C221.666 18.7226 223.339 16.6977 225.869 16.6977C228.155 16.6977 229.583 18.3581 229.583 20.9094C229.583 21.1524 229.583 21.4358 229.502 21.7598ZM227.706 20.3424C227.706 18.9655 227.012 17.9936 225.747 17.9936C224.604 17.9936 223.706 18.9655 223.584 20.3424H227.706Z" fill="white"/>
</svg>
