<svg width="35" height="30" viewBox="0 0 35 30" fill="none" xmlns="http://www.w3.org/2000/svg">
<path d="M34.7125 0.345819V5.74581C32.3125 5.98582 30.5925 6.82582 29.5525 8.26582C28.5125 9.70582 27.9925 12.1058 27.9925 15.4658H34.7125V29.1458H20.1925V17.9858C20.1925 12.1458 21.2725 7.74582 23.4325 4.78582C25.6725 1.82582 29.4325 0.345819 34.7125 0.345819ZM15.1525 0.345819V5.74581C12.7525 5.98582 10.9925 6.82582 9.8725 8.26582C8.8325 9.70582 8.3125 12.1058 8.3125 15.4658H15.1525V29.1458H0.632501V17.9858C0.632501 12.1458 1.7125 7.74582 3.8725 4.78582C6.1125 1.82582 9.8725 0.345819 15.1525 0.345819Z" fill="#239F87"/>
</svg>
