<svg width="44" height="44" viewBox="0 0 44 44" fill="none" xmlns="http://www.w3.org/2000/svg">
<path d="M26.5312 22.7734L30.0681 26.6419" stroke="#0AAD87" stroke-width="2" stroke-linecap="round" stroke-linejoin="round"/>
<path d="M14.4844 26.6419L18.0212 22.7734" stroke="#0AAD87" stroke-width="2" stroke-linecap="round" stroke-linejoin="round"/>
<path d="M25.3161 37.4736H18.6846" stroke="#1C2348" stroke-width="2" stroke-linecap="round" stroke-linejoin="round"/>
<path d="M15.3682 13.9317C15.3682 12.937 16.0313 12.0527 16.805 12.0527H18.7945H25.205H27.1945C27.9682 12.0527 28.6313 12.937 28.6313 13.9317C28.6313 16.5843 26.9734 18.6843 24.984 18.6843H19.0155C17.026 18.6843 15.3682 16.5843 15.3682 13.9317V13.9317Z" stroke="#0AAD87" stroke-width="2" stroke-linecap="round" stroke-linejoin="round"/>
<path d="M25.3161 4.31579V6.52632C25.3161 8.40526 23.8793 9.8421 22.0004 9.8421C20.1214 9.8421 18.6846 8.40526 18.6846 6.52632V4.31579C18.6846 2.43684 20.1214 1 22.0004 1C23.8793 1 25.3161 2.43684 25.3161 4.31579Z" stroke="#0AAD87" stroke-width="2" stroke-linecap="round" stroke-linejoin="round"/>
<path d="M1 37.1417C1 36.1469 1.66314 35.2627 2.43683 35.2627H4.42632H10.8368H12.8263C13.6 35.2627 14.2632 36.1469 14.2632 37.1417C14.2632 39.7943 12.6053 41.8943 10.6158 41.8943H4.64735C2.65788 41.8943 1 39.7943 1 37.1417V37.1417Z" stroke="#1C2348" stroke-width="2" stroke-linecap="round" stroke-linejoin="round"/>
<path d="M10.947 27.5267V29.7373C10.947 31.6162 9.51017 33.053 7.63122 33.053C5.75227 33.053 4.31543 31.6162 4.31543 29.7373V27.5267C4.31543 25.6478 5.75227 24.2109 7.63122 24.2109C9.51017 24.2109 10.947 25.6478 10.947 27.5267Z" stroke="#1C2348" stroke-width="2" stroke-linecap="round" stroke-linejoin="round"/>
<path d="M29.7373 38.2471C29.7373 37.2524 30.4004 36.3682 31.1741 36.3682H33.1636H39.5741H41.5636C42.3373 36.3682 43.0005 37.2524 43.0005 38.2471C43.0005 40.8998 41.3426 42.9997 39.3531 42.9997H33.3847C31.3952 42.9997 29.7373 40.8998 29.7373 38.2471V38.2471Z" stroke="#1C2348" stroke-width="2" stroke-linecap="round" stroke-linejoin="round"/>
<path d="M39.6843 28.6312V30.8417C39.6843 32.7207 38.2475 34.1575 36.3685 34.1575C34.4896 34.1575 33.0527 32.7207 33.0527 30.8417V28.6312C33.0527 26.7523 34.4896 25.3154 36.3685 25.3154C38.2475 25.3154 39.6843 26.7523 39.6843 28.6312Z" stroke="#1C2348" stroke-width="2" stroke-linecap="round" stroke-linejoin="round"/>
</svg>
