<svg width="40" height="42" viewBox="0 0 40 42" fill="none" xmlns="http://www.w3.org/2000/svg">
<path d="M5.59961 23.6999C10.2996 23.5999 14.3996 26.3999 16.6996 30.4999L17.0996 31.3999L21.4996 33.5999C22.2996 33.9999 22.6996 34.9999 22.1996 35.8999C21.7996 36.6999 20.7996 36.9999 19.9996 36.5999L12.4996 32.7999" stroke="#1C2348" stroke-width="2" stroke-linecap="round" stroke-linejoin="round"/>
<path d="M21.8996 36.6002L29.0996 38.3002C29.7996 38.5002 30.1996 39.1002 30.1996 39.7002C30.0996 40.4002 29.4996 41.0002 28.7996 41.0002L16.6996 40.0002C13.9996 39.8002 11.4996 38.9002 9.29961 37.4002L5.59961 34.7002" stroke="#1C2348" stroke-width="2" stroke-linecap="round" stroke-linejoin="round"/>
<path d="M5 35.5H1V22.5H5V35.5Z" stroke="#1C2348" stroke-width="2" stroke-linecap="round" stroke-linejoin="round"/>
<path d="M34.5 18.3C29.8 18.4 25.7 15.6 23.4 11.5L23 10.6L18.6 8.40003C17.8 8.00003 17.5 7.00005 17.9 6.10005C18.3 5.30005 19.3 5.00003 20.1 5.40003L27.5 9.20004" stroke="#0AAD87" stroke-width="2" stroke-linecap="round" stroke-linejoin="round"/>
<path d="M18.3 5.39999L11 3.7C10.4 3.5 10 2.9 10 2.3C10 1.6 10.6 1 11.3 1L23.4 2C26.1 2.2 28.6 3.10001 30.8 4.60001L34.5 7.3" stroke="#0AAD87" stroke-width="2" stroke-linecap="round" stroke-linejoin="round"/>
<path d="M35 6.5H39V19.5H35V6.5Z" stroke="#0AAD87" stroke-width="2" stroke-linecap="round" stroke-linejoin="round"/>
<path d="M27.6004 20.4002L19.7004 28.3002L14.9004 23.5002L17.1004 21.3002L19.7004 24.0002L25.5004 18.2002L27.6004 20.4002Z" stroke="#1C2348" stroke-width="2" stroke-linecap="round" stroke-linejoin="round"/>
</svg>
