<svg width="44" height="47" viewBox="0 0 44 47" fill="none" xmlns="http://www.w3.org/2000/svg">
<path d="M18.5 43C28.165 43 36 35.165 36 25.5C36 15.835 28.165 8 18.5 8C8.83502 8 1 15.835 1 25.5C1 35.165 8.83502 43 18.5 43Z" stroke="#1C2348" stroke-width="2" stroke-linecap="round" stroke-linejoin="round"/>
<path d="M18.5 36C24.299 36 29 31.299 29 25.5C29 19.701 24.299 15 18.5 15C12.701 15 8 19.701 8 25.5C8 31.299 12.701 36 18.5 36Z" stroke="#1C2348" stroke-width="2" stroke-linecap="round" stroke-linejoin="round"/>
<path d="M18.4997 30.1663C21.077 30.1663 23.1663 28.077 23.1663 25.4997C23.1663 22.9223 21.077 20.833 18.4997 20.833C15.9223 20.833 13.833 22.9223 13.833 25.4997C13.833 28.077 15.9223 30.1663 18.4997 30.1663Z" stroke="#0AAD87" stroke-width="2" stroke-linecap="round" stroke-linejoin="round"/>
<path d="M18.5 25.5003L38.3333 5.66699" stroke="#0AAD87" stroke-width="2" stroke-linecap="round" stroke-linejoin="round"/>
<path d="M32.5 6.83333L38.3333 1V5.66667H43L37.1667 11.5H32.5V6.83333Z" stroke="#0AAD87" stroke-width="2" stroke-linecap="round" stroke-linejoin="round"/>
<path d="M30.1664 45.3341L28.0664 40.5508" stroke="#1C2348" stroke-width="2" stroke-linecap="round" stroke-linejoin="round"/>
<path d="M8.93299 40.5508L6.83301 45.3341" stroke="#1C2348" stroke-width="2" stroke-linecap="round" stroke-linejoin="round"/>
</svg>
