<svg width="45" height="47" viewBox="0 0 45 47" fill="none" xmlns="http://www.w3.org/2000/svg">
<path d="M24.4387 6.08608C28.7506 5.20159 32.5097 8.40786 32.5097 12.6092C32.5097 14.8204 31.4041 16.6999 29.7456 17.9161C28.9717 18.4689 28.64 19.2429 28.64 20.1273V22.0069C28.64 23.5548 27.4239 24.7709 25.876 24.7709C24.3281 24.7709 23.112 23.5548 23.112 22.0069V20.2379C23.112 19.3534 22.7803 18.4689 22.0063 17.9161C20.0162 16.4788 18.8001 13.8254 19.4635 11.0613C20.0163 8.62899 22.0064 6.63889 24.4387 6.08608V6.08608Z" stroke="#0AAD87" stroke-width="2" stroke-linecap="round" stroke-linejoin="round"/>
<path d="M25.3232 1V3.21123" stroke="#0AAD87" stroke-width="2" stroke-linecap="round" stroke-linejoin="round"/>
<path d="M13.1621 13.1621H16.4789" stroke="#0AAD87" stroke-width="2" stroke-linecap="round" stroke-linejoin="round"/>
<path d="M35.2744 13.1621H38.5913" stroke="#0AAD87" stroke-width="2" stroke-linecap="round" stroke-linejoin="round"/>
<path d="M23.1123 20.9014H28.6404" stroke="#0AAD87" stroke-width="2" stroke-linecap="round" stroke-linejoin="round"/>
<path d="M18.6891 19.3525L16.8096 21.3426" stroke="#0AAD87" stroke-width="2" stroke-linecap="round" stroke-linejoin="round"/>
<path d="M34.0582 4.0957L32.1787 5.97526" stroke="#0AAD87" stroke-width="2" stroke-linecap="round" stroke-linejoin="round"/>
<path d="M32.1787 19.3525L34.0582 21.3426" stroke="#0AAD87" stroke-width="2" stroke-linecap="round" stroke-linejoin="round"/>
<path d="M16.8096 4.0957L18.6891 5.97526" stroke="#0AAD87" stroke-width="2" stroke-linecap="round" stroke-linejoin="round"/>
<path d="M32.0673 33.8366L40.691 31.957C41.5755 31.8465 42.5706 32.1782 42.9022 33.0627C43.2339 33.9471 42.6811 34.8316 41.7966 35.2739L26.6498 41.6864C24.2174 42.5709 21.3428 43.0132 18.6893 43.0132C16.9204 43.0132 15.4831 42.792 13.7141 42.4604L12.0557 41.9076" stroke="#1C2348" stroke-width="2" stroke-linecap="round" stroke-linejoin="round"/>
<path d="M12.0561 43.0126L8.73929 45.2238L1 30.8509L4.31684 28.6396L12.0561 43.0126Z" stroke="#1C2348" stroke-width="2" stroke-linecap="round" stroke-linejoin="round"/>
<path d="M5.42285 29.7454L8.07631 28.6398C9.73473 27.8659 11.5037 27.5342 13.2727 27.5342C16.0367 27.5342 18.8008 28.4187 21.012 30.1876L22.007 30.851H29.1935C30.7414 30.851 31.9576 32.0672 31.9576 33.615C31.9576 35.1629 30.7414 36.3791 29.1935 36.3791H18.6902" stroke="#1C2348" stroke-width="2" stroke-linecap="round" stroke-linejoin="round"/>
</svg>
