<svg width="136" height="38" viewBox="0 0 136 38" fill="none" xmlns="http://www.w3.org/2000/svg">
<path fill-rule="evenodd" clip-rule="evenodd" d="M111.616 15.1377L111.736 21.9822C111.736 21.9822 113.566 20.2549 114.602 19.0257C115.689 17.7371 117.364 15.899 117.139 15.5329C116.739 14.8826 111.67 8.29476 111.569 8.29395C111.529 8.29354 111.551 11.3732 111.616 15.1377ZM118.839 19.345L114.112 24.7466L116.149 24.8693C118.066 24.9847 118.265 24.901 119.512 23.452C120.242 22.605 121.525 21.1787 122.364 20.2826L123.89 18.6532L125.17 20.075C129.94 25.3755 129.43 25.0017 131.704 24.8685L133.784 24.7466L129.139 19.4981C126.584 16.6111 124.285 14.1806 124.03 14.0961C123.775 14.012 121.439 16.3738 118.839 19.345Z" fill="#0AAD87"/>
<path fill-rule="evenodd" clip-rule="evenodd" d="M73.2776 19.4562C73.2776 21.1033 72.557 22.493 71.1158 23.6254C69.6746 24.7578 67.8602 25.324 65.6727 25.324C63.7682 25.324 62.0954 24.835 60.6542 23.857C59.213 22.8533 58.1835 21.5408 57.5659 19.9195L60.7314 18.5683C61.1946 19.7007 61.8638 20.5886 62.7388 21.232C63.6395 21.8496 64.6175 22.1585 65.6727 22.1585C66.805 22.1585 67.7444 21.914 68.4907 21.425C69.2628 20.936 69.6488 20.357 69.6488 19.6878C69.6488 18.4783 68.7223 17.5904 66.8694 17.0242L63.6267 16.2135C59.9464 15.287 58.1063 13.5113 58.1063 10.8862C58.1063 9.16193 58.8012 7.78506 60.1909 6.75563C61.6064 5.70047 63.4079 5.17288 65.5954 5.17288C67.2683 5.17288 68.7738 5.57179 70.1121 6.3696C71.4761 7.1674 72.4283 8.23544 72.9687 9.5737L69.8032 10.8862C69.4429 10.0884 68.851 9.47075 68.0275 9.03325C67.2297 8.57 66.3289 8.33838 65.3252 8.33838C64.3987 8.33838 63.5623 8.57 62.816 9.03325C62.0954 9.49649 61.7351 10.0627 61.7351 10.7318C61.7351 11.8127 62.7516 12.5848 64.7848 13.048L67.6414 13.7815C71.3988 14.708 73.2776 16.5996 73.2776 19.4562ZM83.6695 25.0151C82.1253 25.0151 80.8385 24.539 79.8091 23.5868C78.8054 22.6346 78.2907 21.3092 78.265 19.6106V9.03325H74.9451V5.79054H78.265V0H81.8165V5.79054H86.4489V9.03325H81.8165V18.4525C81.8165 19.7136 82.061 20.5757 82.55 21.039C83.0389 21.4765 83.5923 21.6952 84.2099 21.6952C84.493 21.6952 84.7632 21.6695 85.0206 21.618C85.3037 21.5408 85.5611 21.4507 85.7927 21.3478L86.9122 24.5133C85.9857 24.8479 84.9048 25.0151 83.6695 25.0151ZM88.558 15.2484C88.558 12.3403 89.4716 9.934 91.2988 8.02955C93.1518 6.12511 95.4809 5.17288 98.2861 5.17288C101.091 5.17288 103.407 6.12511 105.235 8.02955C107.088 9.934 108.014 12.3403 108.014 15.2484C108.014 18.1823 107.088 20.5886 105.235 22.4673C103.407 24.3717 101.091 25.324 98.2861 25.324C95.4809 25.324 93.1518 24.3717 91.2988 22.4673C89.4716 20.5629 88.558 18.1566 88.558 15.2484ZM92.1095 15.2484C92.1095 17.2816 92.7014 18.9286 93.8853 20.1897C95.0691 21.4507 96.536 22.0813 98.2861 22.0813C100.036 22.0813 101.503 21.4507 102.687 20.1897C103.871 18.9286 104.463 17.2816 104.463 15.2484C104.463 13.241 103.871 11.6068 102.687 10.3458C101.477 9.05898 100.01 8.41559 98.2861 8.41559C96.5618 8.41559 95.0948 9.05898 93.8853 10.3458C92.7014 11.6068 92.1095 13.241 92.1095 15.2484ZM4.74824 8.26117H5.05707C5.649 7.30895 6.4468 6.56261 7.4505 6.02216C8.45419 5.45598 9.59943 5.17288 10.8862 5.17288C12.0701 5.17288 13.1124 5.3659 14.0131 5.75194C14.9139 6.13798 15.6473 6.69129 16.2135 7.41189C16.8054 8.10676 17.2429 8.95604 17.526 9.95973C17.6814 10.4515 17.7976 10.9727 17.8748 11.523C17.8923 11.478 17.9101 11.433 17.9282 11.3881C18.4172 10.1528 19.0992 9.08472 19.9742 8.18397C20.8492 7.25748 21.8787 6.52401 23.0625 5.98356C24.2721 5.44311 25.5975 5.17288 27.0387 5.17288C28.5571 5.17288 29.9082 5.43024 31.0921 5.94496C32.2759 6.43394 33.2667 7.1288 34.0645 8.02955C34.8099 8.84699 35.3867 9.81042 35.7951 10.9198C36.2962 9.8023 36.9514 8.83887 37.7607 8.02955C38.6615 7.1288 39.7166 6.43394 40.9262 5.94496C42.1615 5.43024 43.5127 5.17288 44.9796 5.17288C46.4465 5.17288 47.7848 5.43024 48.9944 5.94496C50.2297 6.43394 51.2849 7.1288 52.1599 8.02955C53.0606 8.90457 53.7555 9.95973 54.2445 11.195C54.7592 12.4304 55.0165 13.7815 55.0165 15.2484C55.0165 16.7154 54.7592 18.0665 54.2445 19.3018C53.7555 20.5371 53.0606 21.6052 52.1599 22.5059C51.2849 23.3809 50.2297 24.0758 48.9944 24.5905C47.7848 25.0795 46.4465 25.324 44.9796 25.324C43.5127 25.324 42.1615 25.0795 40.9262 24.5905C39.7166 24.0758 38.6615 23.3809 37.7607 22.5059C37.1195 21.8459 36.5751 21.096 36.1274 20.2563C35.2586 21.752 34.0948 22.9651 32.6362 23.8956C31.1693 24.8479 29.3678 25.324 27.2317 25.324C25.7905 25.324 24.4522 25.0795 23.2169 24.5905C22.0074 24.0758 20.9522 23.3681 20.0514 22.4673C19.1858 21.6017 18.4984 20.5934 17.9893 19.4425V24.7063H12.9322V13.8587C12.9322 12.4947 12.6234 11.491 12.0057 10.8476C11.4138 10.1785 10.5388 9.84392 9.38068 9.84392C8.68581 9.84392 8.06816 9.99834 7.5277 10.3072C7.01299 10.5903 6.56261 10.9892 6.17658 11.5039C5.81628 11.9929 5.53318 12.5848 5.3273 13.2796C5.14715 13.9488 5.05707 14.6694 5.05707 15.4414V24.7063H0V5.79054H4.74824V8.26117ZM31.98 18.0665L36.0325 20.0742C35.9054 19.8244 35.7866 19.567 35.6761 19.3018C35.3186 18.3986 35.0918 17.4335 34.9957 16.4065H22.1746C22.2776 17.1786 22.4835 17.8477 22.7923 18.4139C23.1269 18.9544 23.5258 19.4176 23.989 19.8037C24.478 20.164 25.0056 20.4342 25.5718 20.6143C26.1379 20.7687 26.717 20.846 27.3089 20.846C28.467 20.846 29.4192 20.5886 30.1656 20.0739C30.9377 19.5334 31.5424 18.8643 31.98 18.0665ZM31.5939 12.8164C31.5682 12.4818 31.4524 12.1087 31.2465 11.6969C31.0663 11.2851 30.7832 10.8991 30.3972 10.5388C30.0369 10.1785 29.5737 9.88253 29.0075 9.6509C28.467 9.41928 27.8108 9.30347 27.0387 9.30347C25.9578 9.30347 25.0056 9.6123 24.182 10.23C23.3585 10.8476 22.7794 11.7098 22.4449 12.8164H31.5939ZM44.9796 20.6529C45.623 20.6529 46.2407 20.5371 46.8326 20.3055C47.4502 20.0481 47.9907 19.6878 48.4539 19.2246C48.9172 18.7614 49.2775 18.1952 49.5348 17.526C49.8179 16.8569 49.9595 16.0977 49.9595 15.2484C49.9595 14.3991 49.8179 13.6399 49.5348 12.9708C49.2775 12.3017 48.9172 11.7355 48.4539 11.2723C47.9907 10.809 47.4502 10.4616 46.8326 10.23C46.2407 9.9726 45.623 9.84392 44.9796 9.84392C44.3105 9.84392 43.6799 9.9726 43.088 10.23C42.4961 10.4616 41.9685 10.809 41.5053 11.2723C41.042 11.7355 40.6689 12.3017 40.3858 12.9708C40.1284 13.6399 39.9997 14.3991 39.9997 15.2484C39.9997 16.0977 40.1284 16.8569 40.3858 17.526C40.6689 18.1952 41.042 18.7614 41.5053 19.2246C41.9685 19.6878 42.4961 20.0481 43.088 20.3055C43.6799 20.5371 44.3105 20.6529 44.9796 20.6529ZM21.0639 35.106V32.6455H22.3535C22.8852 32.6455 23.332 32.473 23.6941 32.128C24.0674 31.7829 24.254 31.353 24.254 30.8383C24.254 30.3349 24.0674 29.9078 23.6941 29.5571C23.3264 29.2065 22.8795 29.0311 22.3535 29.0311H20.2833V35.106H21.0639ZM21.0639 31.8989V29.7777H22.3705C22.6816 29.7777 22.9389 29.8852 23.1426 30.1002C23.3518 30.3094 23.4565 30.5555 23.4565 30.8383C23.4565 31.1268 23.3518 31.3757 23.1426 31.5849C22.9389 31.7942 22.6816 31.8989 22.3705 31.8989H21.0639ZM25.8679 31.4407C25.4663 31.8593 25.2655 32.3881 25.2655 33.0273C25.2655 33.6665 25.4663 34.1953 25.8679 34.6139C26.2752 35.0325 26.7871 35.2418 27.4036 35.2418C28.0201 35.2418 28.5292 35.0325 28.9308 34.6139C29.3381 34.201 29.5417 33.6721 29.5417 33.0273C29.5417 32.3881 29.3381 31.8593 28.9308 31.4407C28.5292 31.0221 28.0201 30.8129 27.4036 30.8129C26.7871 30.8129 26.2752 31.0221 25.8679 31.4407ZM26.4364 34.1133C26.1762 33.8362 26.0461 33.4742 26.0461 33.0273C26.0461 32.5861 26.1762 32.2269 26.4364 31.9498C26.7022 31.667 27.0246 31.5256 27.4036 31.5256C27.7826 31.5256 28.105 31.667 28.3708 31.9498C28.631 32.2269 28.7611 32.5861 28.7611 33.0273C28.7611 33.4742 28.631 33.8362 28.3708 34.1133C28.1106 34.3905 27.7882 34.5291 27.4036 34.5291C27.019 34.5291 26.6966 34.3905 26.4364 34.1133ZM34.7828 35.106H35.5803L36.9209 30.9486H36.1233L35.207 34.0879H35.1985L34.1719 30.9486H33.3658L32.3392 34.0879H32.3307L31.4059 30.9486H30.5914L31.932 35.106H32.721L33.7477 31.9158L34.7828 35.106ZM38.5673 34.6139C38.9633 35.0325 39.4667 35.2418 40.0776 35.2418C40.4962 35.2418 40.8695 35.1428 41.1975 34.9448C41.5313 34.7468 41.7915 34.4725 41.9781 34.1218L41.2824 33.7824C40.9996 34.2802 40.6093 34.5291 40.1115 34.5291C39.7495 34.5291 39.4384 34.4046 39.1782 34.1558C38.918 33.9069 38.7823 33.5788 38.771 33.1715H42.0375L42.046 33.0867C42.046 32.3683 41.8622 31.8112 41.4945 31.4153C41.1325 31.0137 40.6432 30.8129 40.0267 30.8129C39.4271 30.8129 38.935 31.025 38.5504 31.4492C38.1657 31.8678 37.9734 32.3938 37.9734 33.0273C37.9734 33.6665 38.1714 34.1953 38.5673 34.6139ZM41.2145 32.5267H38.8304C38.8982 32.2213 39.0368 31.9781 39.2461 31.7971C39.461 31.6161 39.7156 31.5256 40.0097 31.5256C40.3661 31.5256 40.6489 31.6217 40.8582 31.814C41.0731 32.0007 41.1919 32.2383 41.2145 32.5267ZM49.4619 29.1075C49.2809 29.0113 49.049 28.9632 48.7661 28.9632C48.3532 28.9632 48.0138 29.0905 47.748 29.345C47.4878 29.5996 47.3577 29.9333 47.3577 30.3462V30.9486H46.5771V31.6613H47.3577V35.106H48.1383V31.6613H49.2243V30.9486H48.1383V30.4226C48.1383 30.202 48.1977 30.0266 48.3165 29.8965C48.4409 29.7608 48.5993 29.6929 48.7916 29.6929C48.9613 29.6929 49.114 29.7268 49.2498 29.7947L49.4619 29.1075ZM44.3712 30.9486H43.6245V35.106H44.4051V32.8152C44.4051 32.4702 44.5211 32.1873 44.753 31.9667C44.9905 31.7405 45.2903 31.6274 45.6523 31.6274L46.0002 31.6613V30.8468L45.839 30.8298C45.115 30.8298 44.637 31.0957 44.4051 31.6274H44.3712V30.9486ZM53.6549 35.106H54.4015V30.9486H53.621V33.2479C53.621 33.5986 53.5163 33.9012 53.307 34.1558C53.0977 34.4046 52.8376 34.5291 52.5265 34.5291C51.859 34.5291 51.5168 34.1897 51.4998 33.5109V30.9486H50.7193V33.5618C50.7193 34.0992 50.855 34.5149 51.1265 34.8091C51.4037 35.0975 51.7968 35.2418 52.3059 35.2418C52.5717 35.2418 52.8262 35.1739 53.0695 35.0381C53.3183 34.9024 53.5022 34.7327 53.621 34.5291H53.6549V35.106ZM56.997 35.106V29.0311H56.2165V35.106H56.997ZM63.4081 35.106V29.7777H65.105V29.0311H60.9306V29.7777H62.6275V35.106H63.4081ZM66.1434 35.106H66.924V32.8152C66.924 32.4984 67.0315 32.2213 67.2464 31.9837C67.467 31.7462 67.7244 31.6274 68.0185 31.6274C68.2278 31.6274 68.3805 31.6472 68.4766 31.6868L68.7142 30.9316C68.5558 30.8638 68.3635 30.8298 68.1373 30.8298C67.8997 30.8298 67.6565 30.909 67.4076 31.0674C67.1644 31.2201 67.0032 31.4068 66.924 31.6274H66.89V30.9486H66.1434V35.106ZM70.7477 34.3424C70.578 34.2067 70.4931 34.037 70.4931 33.8333C70.4931 33.6071 70.5978 33.4176 70.8071 33.2649C71.022 33.1122 71.2879 33.0358 71.6046 33.0358C72.0401 33.0358 72.3795 33.132 72.6227 33.3243C72.6227 33.6523 72.4927 33.938 72.2325 34.1812C71.9779 34.4244 71.6866 34.546 71.3586 34.546C71.1266 34.546 70.923 34.4782 70.7477 34.3424ZM72.8688 31.2795C72.5351 30.9684 72.0797 30.8129 71.5028 30.8129C70.7618 30.8129 70.2018 31.0844 69.8229 31.6274L70.5101 32.0601C70.7646 31.6924 71.1097 31.5086 71.5452 31.5086C71.8337 31.5086 72.0854 31.6047 72.3003 31.7971C72.5153 31.9837 72.6227 32.2128 72.6227 32.4843V32.6625C72.323 32.4928 71.9412 32.4079 71.4773 32.4079C70.9343 32.4079 70.4988 32.5352 70.1707 32.7897C69.8483 33.0443 69.6871 33.3865 69.6871 33.8164C69.6871 34.2236 69.8398 34.563 70.1453 34.8345C70.4564 35.106 70.841 35.2418 71.2992 35.2418C71.8365 35.2418 72.2664 35.0042 72.5888 34.5291H72.6227V35.106H73.3694V32.5437C73.3694 32.0063 73.2025 31.5849 72.8688 31.2795ZM77.8814 34.1133C77.6382 34.3905 77.3243 34.5291 76.9397 34.5291C76.5663 34.5291 76.2524 34.3877 75.9979 34.1048C75.7433 33.8277 75.6161 33.4685 75.6161 33.0273C75.6161 32.5918 75.7433 32.2326 75.9979 31.9498C76.2524 31.667 76.5663 31.5256 76.9397 31.5256C77.3186 31.5256 77.6326 31.667 77.8814 31.9498C78.136 32.2326 78.2632 32.5918 78.2632 33.0273C78.2632 33.4742 78.136 33.8362 77.8814 34.1133ZM75.4125 34.5969C75.8027 35.0268 76.2694 35.2418 76.8124 35.2418C77.1178 35.2418 77.395 35.1767 77.6439 35.0466C77.8984 34.9165 78.0936 34.744 78.2293 34.5291H78.2632V35.106H79.0099V29.0311H78.2293V30.9486L78.2632 31.5256H78.2293C78.0936 31.3106 77.8984 31.1381 77.6439 31.008C77.395 30.8779 77.1178 30.8129 76.8124 30.8129C76.2694 30.8129 75.8027 31.0278 75.4125 31.4577C75.0278 31.8932 74.8355 32.4164 74.8355 33.0273C74.8355 33.6382 75.0278 34.1614 75.4125 34.5969ZM81.6748 29.905C81.7822 29.7975 81.836 29.6674 81.836 29.5147C81.836 29.362 81.7822 29.2319 81.6748 29.1244C81.5673 29.017 81.4372 28.9632 81.2845 28.9632C81.1318 28.9632 81.0017 29.017 80.8942 29.1244C80.7867 29.2319 80.733 29.362 80.733 29.5147C80.733 29.6674 80.7867 29.7975 80.8942 29.905C81.0017 30.0125 81.1318 30.0662 81.2845 30.0662C81.4372 30.0662 81.5673 30.0125 81.6748 29.905ZM84.302 30.9486H83.5553V35.106H84.3359V32.8067C84.3359 32.456 84.4405 32.1562 84.6498 31.9074C84.8591 31.6528 85.1193 31.5256 85.4304 31.5256C86.0978 31.5256 86.44 31.8649 86.457 32.5437V35.106H87.2376V32.4928C87.2376 31.9554 87.099 31.5425 86.8218 31.254C86.5503 30.9599 86.1601 30.8129 85.651 30.8129C85.3851 30.8129 85.1278 30.8807 84.8789 31.0165C84.6357 31.1522 84.4547 31.3219 84.3359 31.5256H84.302V30.9486ZM91.7855 34.1133C91.5423 34.3905 91.2284 34.5291 90.8437 34.5291C90.4704 34.5291 90.1565 34.3877 89.902 34.1048C89.6474 33.8277 89.5202 33.4685 89.5202 33.0273C89.5202 32.5918 89.6474 32.2326 89.902 31.9498C90.1565 31.667 90.4704 31.5256 90.8437 31.5256C91.2227 31.5256 91.5366 31.667 91.7855 31.9498C92.04 32.2326 92.1673 32.5918 92.1673 33.0273C92.1673 33.4742 92.04 33.8362 91.7855 34.1133ZM90.165 36.9811C90.3686 37.0433 90.5864 37.0744 90.8183 37.0744C91.4518 37.0744 91.9609 36.8821 92.3455 36.4975C92.7245 36.1185 92.914 35.5953 92.914 34.9278V30.9486H92.1673V31.5256H92.1334C91.9863 31.305 91.7855 31.1324 91.531 31.008C91.2821 30.8779 91.0106 30.8129 90.7165 30.8129C90.1735 30.8129 89.7068 31.0278 89.3165 31.4577C88.9319 31.8876 88.7396 32.4108 88.7396 33.0273C88.7396 33.6439 88.9319 34.1699 89.3165 34.6054C89.7068 35.0297 90.1735 35.2418 90.7165 35.2418C91.0106 35.2418 91.2821 35.1795 91.531 35.0551C91.7855 34.925 91.9863 34.7497 92.1334 34.5291H92.1673V34.9278C92.1673 35.3747 92.0485 35.7254 91.811 35.9799C91.5734 36.2345 91.2425 36.3617 90.8183 36.3617C90.5411 36.3617 90.2979 36.2882 90.0886 36.1411C89.8793 35.9941 89.7323 35.7989 89.6474 35.5557L88.9093 35.8611C88.9715 36.0421 89.062 36.2062 89.1808 36.3532C89.2996 36.5003 89.441 36.6276 89.605 36.735C89.7747 36.8425 89.9613 36.9245 90.165 36.9811ZM98.3757 35.106V32.6455H99.6654C100.197 32.6455 100.644 32.473 101.006 32.128C101.379 31.7829 101.566 31.353 101.566 30.8383C101.566 30.3349 101.379 29.9078 101.006 29.5571C100.638 29.2065 100.191 29.0311 99.6654 29.0311H97.5951V35.106H98.3757ZM81.6748 35.106V30.9486H80.8942V35.106H81.6748ZM99.6823 31.8989H98.3757V29.7777H99.6823C99.9934 29.7777 100.251 29.8852 100.454 30.1002C100.664 30.3094 100.768 30.5555 100.768 30.8383C100.768 31.1268 100.664 31.3757 100.454 31.5849C100.251 31.7942 99.9934 31.8989 99.6823 31.8989ZM103.935 35.106V29.0311H103.155V35.106H103.935ZM106.533 34.3424C106.363 34.2067 106.278 34.037 106.278 33.8333C106.278 33.6071 106.383 33.4176 106.592 33.2649C106.807 33.1122 107.073 33.0358 107.39 33.0358C107.825 33.0358 108.164 33.132 108.408 33.3243C108.408 33.6523 108.278 33.938 108.017 34.1812C107.763 34.4244 107.472 34.546 107.144 34.546C106.912 34.546 106.708 34.4782 106.533 34.3424ZM108.654 31.2795C108.32 30.9684 107.865 30.8129 107.288 30.8129C106.547 30.8129 105.987 31.0844 105.608 31.6274L106.295 32.0601C106.55 31.6924 106.895 31.5086 107.33 31.5086C107.619 31.5086 107.87 31.6047 108.085 31.7971C108.3 31.9837 108.408 32.2128 108.408 32.4843V32.6625C108.108 32.4928 107.726 32.4079 107.262 32.4079C106.719 32.4079 106.284 32.5352 105.956 32.7897C105.633 33.0443 105.472 33.3865 105.472 33.8164C105.472 34.2236 105.625 34.563 105.93 34.8345C106.241 35.106 106.626 35.2418 107.084 35.2418C107.621 35.2418 108.051 35.0042 108.374 34.5291H108.408V35.106H109.154V32.5437C109.154 32.0063 108.987 31.5849 108.654 31.2795ZM111.623 34.86C111.849 35.0692 112.129 35.1739 112.463 35.1739C112.728 35.1739 112.966 35.1371 113.175 35.0636L112.929 34.3679C112.81 34.4188 112.686 34.4442 112.556 34.4442C112.42 34.4442 112.301 34.3905 112.2 34.283C112.103 34.1755 112.055 34.0002 112.055 33.757V31.6613H113.922V35.106H114.702V31.6613H115.789V30.9486H114.702V30.4226C114.702 30.202 114.762 30.0266 114.881 29.8965C115.005 29.7608 115.163 29.6929 115.356 29.6929C115.525 29.6929 115.678 29.7268 115.814 29.7947L116.026 29.1075C115.845 29.0113 115.613 28.9632 115.33 28.9632C114.917 28.9632 114.578 29.0905 114.312 29.345C114.052 29.5996 113.922 29.9333 113.922 30.3462V30.9486H112.055V29.6759H111.275V30.9486H110.545V31.6613H111.275V33.9861C111.28 34.3594 111.396 34.6507 111.623 34.86ZM117.506 31.4407C117.105 31.8593 116.904 32.3881 116.904 33.0273C116.904 33.6665 117.105 34.1953 117.506 34.6139C117.914 35.0325 118.426 35.2418 119.042 35.2418C119.659 35.2418 120.168 35.0325 120.569 34.6139C120.977 34.201 121.18 33.6721 121.18 33.0273C121.18 32.3881 120.977 31.8593 120.569 31.4407C120.168 31.0221 119.659 30.8129 119.042 30.8129C118.426 30.8129 117.914 31.0221 117.506 31.4407ZM118.075 34.1133C117.815 33.8362 117.685 33.4742 117.685 33.0273C117.685 32.5861 117.815 32.2269 118.075 31.9498C118.341 31.667 118.663 31.5256 119.042 31.5256C119.421 31.5256 119.743 31.667 120.009 31.9498C120.27 32.2269 120.4 32.5861 120.4 33.0273C120.4 33.4742 120.27 33.8362 120.009 34.1133C119.749 34.3905 119.427 34.5291 119.042 34.5291C118.657 34.5291 118.335 34.3905 118.075 34.1133ZM122.671 35.106H123.452V32.8152C123.452 32.4984 123.559 32.2213 123.774 31.9837C123.995 31.7462 124.252 31.6274 124.546 31.6274C124.755 31.6274 124.908 31.6472 125.004 31.6868L125.242 30.9316C125.084 30.8638 124.891 30.8298 124.665 30.8298C124.427 30.8298 124.184 30.909 123.935 31.0674C123.692 31.2201 123.531 31.4068 123.452 31.6274H123.418V30.9486H122.671V35.106ZM126.618 35.106H127.399V32.8067C127.399 32.4617 127.5 32.1619 127.704 31.9074C127.908 31.6528 128.159 31.5256 128.459 31.5256C128.793 31.5256 129.031 31.6132 129.172 31.7886C129.313 31.9583 129.384 32.2383 129.384 32.6285V35.106H130.165V32.8067C130.165 32.4617 130.266 32.1619 130.47 31.9074C130.674 31.6528 130.925 31.5256 131.225 31.5256C131.559 31.5256 131.796 31.6132 131.938 31.7886C132.079 31.9583 132.15 32.2383 132.15 32.6285V35.106H132.931V32.5098C132.931 31.9667 132.8 31.5482 132.54 31.254C132.28 30.9599 131.91 30.8129 131.429 30.8129C130.818 30.8129 130.34 31.0787 129.995 31.6104C129.887 31.3615 129.718 31.1664 129.486 31.025C129.254 30.8836 128.985 30.8129 128.68 30.8129C128.437 30.8129 128.191 30.8807 127.942 31.0165C127.698 31.1522 127.517 31.3219 127.399 31.5256H127.365V30.9486H126.618V35.106ZM112.198 6.41656H116.845L122.557 12.5374L119.81 14.9793L112.198 6.41656ZM131.312 6.41656H135.96L128.347 14.9793L125.601 12.5374L131.312 6.41656Z" fill="#1C2348"/>
</svg>
