<svg width="136" height="38" viewBox="0 0 136 38" fill="none" xmlns="http://www.w3.org/2000/svg">
<path fill-rule="evenodd" clip-rule="evenodd" d="M111.617 15.1377L111.736 21.9822C111.736 21.9822 113.566 20.2549 114.603 19.0257C115.69 17.7371 117.365 15.899 117.14 15.5329C116.74 14.8826 111.67 8.29476 111.569 8.29395C111.529 8.29354 111.551 11.3732 111.617 15.1377ZM118.839 19.345L114.112 24.7466L116.149 24.8693C118.066 24.9847 118.265 24.901 119.513 23.452C120.242 22.605 121.525 21.1787 122.365 20.2826L123.89 18.6532L125.17 20.075C129.94 25.3755 129.43 25.0017 131.705 24.8685L133.784 24.7466L129.139 19.4981C126.584 16.6111 124.285 14.1806 124.03 14.0961C123.776 14.012 121.44 16.3738 118.839 19.345Z" fill="#0AAD87"/>
<path fill-rule="evenodd" clip-rule="evenodd" d="M73.2771 19.4562C73.2771 21.1033 72.5565 22.493 71.1153 23.6254C69.6741 24.7578 67.8598 25.324 65.6722 25.324C63.7678 25.324 62.095 24.835 60.6538 23.857C59.2126 22.8533 58.1831 21.5408 57.5655 19.9195L60.731 18.5683C61.1942 19.7007 61.8633 20.5886 62.7383 21.232C63.6391 21.8496 64.6171 22.1585 65.6722 22.1585C66.8046 22.1585 67.7439 21.914 68.4903 21.425C69.2624 20.936 69.6484 20.357 69.6484 19.6878C69.6484 18.4783 68.7219 17.5904 66.8689 17.0242L63.6262 16.2135C59.946 15.287 58.1059 13.5113 58.1059 10.8862C58.1059 9.16193 58.8008 7.78506 60.1905 6.75563C61.606 5.70047 63.4075 5.17288 65.595 5.17288C67.2678 5.17288 68.7734 5.57179 70.1116 6.3696C71.4756 7.1674 72.4279 8.23544 72.9683 9.5737L69.8028 10.8862C69.4425 10.0884 68.8506 9.47075 68.027 9.03325C67.2292 8.57 66.3285 8.33838 65.3248 8.33838C64.3983 8.33838 63.5619 8.57 62.8156 9.03325C62.095 9.49649 61.7347 10.0627 61.7347 10.7318C61.7347 11.8127 62.7512 12.5848 64.7843 13.048L67.641 13.7815C71.3984 14.708 73.2771 16.5996 73.2771 19.4562ZM83.669 25.0151C82.1249 25.0151 80.8381 24.539 79.8087 23.5868C78.805 22.6346 78.2903 21.3092 78.2645 19.6106V9.03325H74.9446V5.79054H78.2645V0H81.8161V5.79054H86.4485V9.03325H81.8161V18.4525C81.8161 19.7136 82.0606 20.5757 82.5495 21.039C83.0385 21.4765 83.5918 21.6952 84.2095 21.6952C84.4926 21.6952 84.7628 21.6695 85.0202 21.618C85.3033 21.5408 85.5606 21.4507 85.7922 21.3478L86.9118 24.5133C85.9853 24.8479 84.9044 25.0151 83.669 25.0151ZM88.5575 15.2484C88.5575 12.3403 89.4711 9.934 91.2984 8.02955C93.1514 6.12511 95.4804 5.17288 98.2856 5.17288C101.091 5.17288 103.407 6.12511 105.234 8.02955C107.087 9.934 108.014 12.3403 108.014 15.2484C108.014 18.1823 107.087 20.5886 105.234 22.4673C103.407 24.3717 101.091 25.324 98.2856 25.324C95.4804 25.324 93.1514 24.3717 91.2984 22.4673C89.4711 20.5629 88.5575 18.1566 88.5575 15.2484ZM92.1091 15.2484C92.1091 17.2816 92.701 18.9286 93.8848 20.1897C95.0687 21.4507 96.5356 22.0813 98.2856 22.0813C100.036 22.0813 101.503 21.4507 102.686 20.1897C103.87 18.9286 104.462 17.2816 104.462 15.2484C104.462 13.241 103.87 11.6068 102.686 10.3458C101.477 9.05898 100.01 8.41559 98.2856 8.41559C96.5613 8.41559 95.0944 9.05898 93.8848 10.3458C92.701 11.6068 92.1091 13.241 92.1091 15.2484ZM4.74824 8.26117H5.05707C5.649 7.30895 6.4468 6.56261 7.4505 6.02216C8.45419 5.45598 9.59943 5.17288 10.8862 5.17288C12.0701 5.17288 13.1124 5.3659 14.0131 5.75194C14.9139 6.13798 15.6473 6.69129 16.2135 7.41189C16.8054 8.10676 17.2429 8.95604 17.526 9.95973C17.6814 10.4515 17.7976 10.9727 17.8748 11.523C17.8923 11.478 17.9101 11.433 17.9282 11.3881C18.4172 10.1528 19.0992 9.08472 19.9742 8.18397C20.8492 7.25748 21.8787 6.52401 23.0625 5.98356C24.2721 5.44311 25.5975 5.17288 27.0387 5.17288C28.5571 5.17288 29.9082 5.43024 31.0921 5.94496C32.2759 6.43394 33.2667 7.1288 34.0646 8.02955C34.8099 8.84699 35.3867 9.81042 35.7951 10.9198C36.2962 9.8023 36.9514 8.83887 37.7607 8.02955C38.6615 7.1288 39.7166 6.43394 40.9262 5.94496C42.1615 5.43024 43.5127 5.17288 44.9796 5.17288C46.4465 5.17288 47.7848 5.43024 48.9944 5.94496C50.2297 6.43394 51.2849 7.1288 52.1599 8.02955C53.0606 8.90457 53.7555 9.95973 54.2445 11.195C54.7592 12.4304 55.0165 13.7815 55.0165 15.2484C55.0165 16.7154 54.7592 18.0665 54.2445 19.3018C53.7555 20.5371 53.0606 21.6052 52.1599 22.5059C51.2849 23.3809 50.2297 24.0758 48.9944 24.5905C47.7848 25.0795 46.4465 25.324 44.9796 25.324C43.5127 25.324 42.1615 25.0795 40.9262 24.5905C39.7166 24.0758 38.6615 23.3809 37.7607 22.5059C37.1195 21.8459 36.5751 21.096 36.1274 20.2563C35.2585 21.752 34.0948 22.9651 32.6362 23.8956C31.1693 24.8479 29.3678 25.324 27.2317 25.324C25.7905 25.324 24.4522 25.0795 23.2169 24.5905C22.0074 24.0758 20.9522 23.3681 20.0514 22.4673C19.1858 21.6016 18.4984 20.5934 17.9893 19.4425V24.7063H12.9322V13.8587C12.9322 12.4947 12.6234 11.491 12.0057 10.8476C11.4138 10.1785 10.5388 9.84392 9.38068 9.84392C8.68581 9.84392 8.06816 9.99834 7.5277 10.3072C7.01299 10.5903 6.56261 10.9892 6.17658 11.5039C5.81628 11.9929 5.53318 12.5848 5.3273 13.2796C5.14715 13.9488 5.05707 14.6694 5.05707 15.4414V24.7063H0V5.79054H4.74824V8.26117ZM31.98 18.0665L36.0325 20.0742C35.9054 19.8244 35.7866 19.567 35.6761 19.3018C35.3186 18.3986 35.0918 17.4335 34.9957 16.4065H22.1746C22.2776 17.1786 22.4835 17.8477 22.7923 18.4139C23.1269 18.9544 23.5258 19.4176 23.989 19.8037C24.478 20.164 25.0056 20.4342 25.5718 20.6143C26.1379 20.7687 26.717 20.846 27.3089 20.846C28.467 20.846 29.4192 20.5886 30.1656 20.0739C30.9377 19.5334 31.5424 18.8643 31.98 18.0665ZM31.5939 12.8164C31.5682 12.4818 31.4524 12.1087 31.2465 11.6969C31.0663 11.2851 30.7832 10.8991 30.3972 10.5388C30.0369 10.1785 29.5737 9.88253 29.0075 9.6509C28.467 9.41928 27.8108 9.30347 27.0387 9.30347C25.9578 9.30347 25.0056 9.6123 24.182 10.23C23.3585 10.8476 22.7794 11.7098 22.4449 12.8164H31.5939ZM44.9796 20.6529C45.623 20.6529 46.2407 20.5371 46.8326 20.3055C47.4502 20.0481 47.9907 19.6878 48.4539 19.2246C48.9172 18.7614 49.2775 18.1952 49.5348 17.526C49.8179 16.8569 49.9595 16.0977 49.9595 15.2484C49.9595 14.3991 49.8179 13.6399 49.5348 12.9708C49.2775 12.3017 48.9172 11.7355 48.4539 11.2723C47.9907 10.809 47.4502 10.4616 46.8326 10.23C46.2407 9.9726 45.623 9.84392 44.9796 9.84392C44.3105 9.84392 43.6799 9.9726 43.088 10.23C42.4961 10.4616 41.9685 10.809 41.5053 11.2723C41.042 11.7355 40.6689 12.3017 40.3858 12.9708C40.1284 13.6399 39.9997 14.3991 39.9997 15.2484C39.9997 16.0977 40.1284 16.8569 40.3858 17.526C40.6689 18.1952 41.042 18.7614 41.5053 19.2246C41.9685 19.6878 42.4961 20.0481 43.088 20.3055C43.6799 20.5371 44.3105 20.6529 44.9796 20.6529ZM21.0636 35.1067V32.6462H22.3533C22.885 32.6462 23.3318 32.4737 23.6938 32.1286C24.0672 31.7836 24.2538 31.3537 24.2538 30.839C24.2538 30.3356 24.0672 29.9085 23.6938 29.5578C23.3262 29.2071 22.8793 29.0318 22.3533 29.0318H20.2831V35.1067H21.0636ZM21.0636 31.8996V29.7784H22.3703C22.6814 29.7784 22.9387 29.8859 23.1423 30.1008C23.3516 30.3101 23.4563 30.5562 23.4563 30.839C23.4563 31.1275 23.3516 31.3764 23.1423 31.5856C22.9387 31.7949 22.6814 31.8996 22.3703 31.8996H21.0636ZM25.8677 31.4414C25.4661 31.86 25.2653 32.3888 25.2653 33.028C25.2653 33.6672 25.4661 34.196 25.8677 34.6146C26.2749 35.0332 26.7868 35.2425 27.4034 35.2425C28.0199 35.2425 28.529 35.0332 28.9306 34.6146C29.3378 34.2017 29.5415 33.6728 29.5415 33.028C29.5415 32.3888 29.3378 31.86 28.9306 31.4414C28.529 31.0228 28.0199 30.8135 27.4034 30.8135C26.7868 30.8135 26.2749 31.0228 25.8677 31.4414ZM26.4361 34.114C26.176 33.8369 26.0459 33.4749 26.0459 33.028C26.0459 32.5868 26.176 32.2276 26.4361 31.9505C26.702 31.6677 27.0244 31.5262 27.4034 31.5262C27.7824 31.5262 28.1048 31.6677 28.3706 31.9505C28.6308 32.2276 28.7609 32.5868 28.7609 33.028C28.7609 33.4749 28.6308 33.8369 28.3706 34.114C28.1104 34.3912 27.788 34.5298 27.4034 34.5298C27.0188 34.5298 26.6963 34.3912 26.4361 34.114ZM34.7825 35.1067H35.5801L36.9206 30.9493H36.1231L35.2068 34.0886H35.1983L34.1717 30.9493H33.3656L32.339 34.0886H32.3305L31.4057 30.9493H30.5912L31.9317 35.1067H32.7208L33.7474 31.9165L34.7825 35.1067ZM38.5671 34.6146C38.9631 35.0332 39.4665 35.2425 40.0774 35.2425C40.4959 35.2425 40.8693 35.1435 41.1973 34.9455C41.531 34.7475 41.7912 34.4732 41.9779 34.1225L41.2822 33.7831C40.9993 34.2809 40.6091 34.5298 40.1113 34.5298C39.7493 34.5298 39.4382 34.4053 39.178 34.1564C38.9178 33.9076 38.7821 33.5795 38.7708 33.1722H42.0373L42.0458 33.0874C42.0458 32.369 41.8619 31.8119 41.4943 31.4159C41.1323 31.0143 40.643 30.8135 40.0265 30.8135C39.4269 30.8135 38.9348 31.0257 38.5502 31.4499C38.1655 31.8685 37.9732 32.3945 37.9732 33.028C37.9732 33.6672 38.1712 34.196 38.5671 34.6146ZM41.2143 32.5274H38.8301C38.898 32.222 39.0366 31.9788 39.2459 31.7977C39.4608 31.6167 39.7154 31.5262 40.0095 31.5262C40.3658 31.5262 40.6487 31.6224 40.8579 31.8147C41.0729 32.0014 41.1917 32.2389 41.2143 32.5274ZM49.4616 29.1082C49.2806 29.012 49.0487 28.9639 48.7659 28.9639C48.353 28.9639 48.0136 29.0912 47.7478 29.3457C47.4876 29.6003 47.3575 29.934 47.3575 30.3469V30.9493H46.5769V31.662H47.3575V35.1067H48.1381V31.662H49.2241V30.9493H48.1381V30.4233C48.1381 30.2027 48.1975 30.0273 48.3162 29.8972C48.4407 29.7615 48.5991 29.6936 48.7914 29.6936C48.9611 29.6936 49.1138 29.7275 49.2495 29.7954L49.4616 29.1082ZM44.3709 30.9493H43.6243V35.1067H44.4049V32.8159C44.4049 32.4709 44.5208 32.188 44.7528 31.9674C44.9903 31.7412 45.2901 31.6281 45.6521 31.6281L46 31.662V30.8475L45.8388 30.8305C45.1148 30.8305 44.6368 31.0964 44.4049 31.6281H44.3709V30.9493ZM53.6547 35.1067H54.4013V30.9493H53.6207V33.2486C53.6207 33.5993 53.5161 33.9019 53.3068 34.1564C53.0975 34.4053 52.8373 34.5298 52.5262 34.5298C51.8588 34.5298 51.5166 34.1904 51.4996 33.5116V30.9493H50.719V33.5625C50.719 34.0999 50.8548 34.5156 51.1263 34.8097C51.4035 35.0982 51.7966 35.2425 52.3056 35.2425C52.5715 35.2425 52.826 35.1746 53.0692 35.0388C53.3181 34.9031 53.502 34.7334 53.6207 34.5298H53.6547V35.1067ZM56.9968 35.1067V29.0318H56.2162V35.1067H56.9968ZM63.4079 35.1067V29.7784H65.1048V29.0318H60.9304V29.7784H62.6273V35.1067H63.4079ZM66.1432 35.1067H66.9238V32.8159C66.9238 32.4991 67.0312 32.222 67.2462 31.9844C67.4668 31.7468 67.7241 31.6281 68.0183 31.6281C68.2275 31.6281 68.3803 31.6479 68.4764 31.6875L68.714 30.9323C68.5556 30.8645 68.3633 30.8305 68.137 30.8305C67.8995 30.8305 67.6563 30.9097 67.4074 31.0681C67.1642 31.2208 67.003 31.4075 66.9238 31.6281H66.8898V30.9493H66.1432V35.1067ZM71.3583 34.5467C71.1264 34.5467 70.9228 34.4789 70.7475 34.3431C70.5778 34.2073 70.4929 34.0377 70.4929 33.834C70.4929 33.6078 70.5976 33.4183 70.8068 33.2656C71.0218 33.1128 71.2876 33.0365 71.6044 33.0365C72.0399 33.0365 72.3793 33.1326 72.6225 33.325C72.6225 33.653 72.4924 33.9387 72.2322 34.1819C71.9777 34.4251 71.6864 34.5467 71.3583 34.5467ZM72.8686 31.2802C72.5349 30.9691 72.0795 30.8135 71.5026 30.8135C70.7616 30.8135 70.2016 31.0851 69.8226 31.6281L70.5099 32.0608C70.7644 31.6931 71.1095 31.5093 71.545 31.5093C71.8335 31.5093 72.0852 31.6054 72.3001 31.7977C72.5151 31.9844 72.6225 32.2135 72.6225 32.485V32.6632C72.3227 32.4935 71.9409 32.4086 71.4771 32.4086C70.9341 32.4086 70.4986 32.5359 70.1705 32.7904C69.8481 33.045 69.6869 33.3872 69.6869 33.8171C69.6869 34.2243 69.8396 34.5637 70.1451 34.8352C70.4562 35.1067 70.8408 35.2425 71.2989 35.2425C71.8363 35.2425 72.2662 35.0049 72.5886 34.5298H72.6225V35.1067H73.3692V32.5444C73.3692 32.007 73.2023 31.5856 72.8686 31.2802ZM77.8812 34.114C77.638 34.3912 77.3241 34.5298 76.9394 34.5298C76.5661 34.5298 76.2522 34.3884 75.9977 34.1055C75.7431 33.8284 75.6159 33.4692 75.6159 33.028C75.6159 32.5925 75.7431 32.2333 75.9977 31.9505C76.2522 31.6677 76.5661 31.5262 76.9394 31.5262C77.3184 31.5262 77.6323 31.6677 77.8812 31.9505C78.1358 32.2333 78.263 32.5925 78.263 33.028C78.263 33.4749 78.1358 33.8369 77.8812 34.114ZM75.4122 34.5976C75.8025 35.0275 76.2692 35.2425 76.8122 35.2425C77.1176 35.2425 77.3948 35.1774 77.6437 35.0473C77.8982 34.9172 78.0933 34.7447 78.2291 34.5298H78.263V35.1067H79.0097V29.0318H78.2291V30.9493L78.263 31.5262H78.2291C78.0933 31.3113 77.8982 31.1388 77.6437 31.0087C77.3948 30.8786 77.1176 30.8135 76.8122 30.8135C76.2692 30.8135 75.8025 31.0285 75.4122 31.4584C75.0276 31.8939 74.8353 32.4171 74.8353 33.028C74.8353 33.6389 75.0276 34.1621 75.4122 34.5976ZM81.6746 29.9057C81.782 29.7982 81.8358 29.6681 81.8358 29.5154C81.8358 29.3627 81.782 29.2326 81.6746 29.1251C81.5671 29.0177 81.437 28.9639 81.2843 28.9639C81.1315 28.9639 81.0014 29.0177 80.894 29.1251C80.7865 29.2326 80.7328 29.3627 80.7328 29.5154C80.7328 29.6681 80.7865 29.7982 80.894 29.9057C81.0014 30.0132 81.1315 30.0669 81.2843 30.0669C81.437 30.0669 81.5671 30.0132 81.6746 29.9057ZM84.3017 30.9493H83.5551V35.1067H84.3357V32.8074C84.3357 32.4567 84.4403 32.1569 84.6496 31.908C84.8589 31.6535 85.1191 31.5262 85.4302 31.5262C86.0976 31.5262 86.4398 31.8656 86.4568 32.5444V35.1067H87.2374V32.4935C87.2374 31.9561 87.0988 31.5432 86.8216 31.2547C86.5501 30.9606 86.1598 30.8135 85.6508 30.8135C85.3849 30.8135 85.1276 30.8814 84.8787 31.0172C84.6355 31.1529 84.4545 31.3226 84.3357 31.5262H84.3017V30.9493ZM91.7853 34.114C91.5421 34.3912 91.2281 34.5298 90.8435 34.5298C90.4702 34.5298 90.1563 34.3884 89.9017 34.1055C89.6472 33.8284 89.5199 33.4692 89.5199 33.028C89.5199 32.5925 89.6472 32.2333 89.9017 31.9505C90.1563 31.6677 90.4702 31.5262 90.8435 31.5262C91.2225 31.5262 91.5364 31.6677 91.7853 31.9505C92.0398 32.2333 92.1671 32.5925 92.1671 33.028C92.1671 33.4749 92.0398 33.8369 91.7853 34.114ZM90.1648 36.9818C90.3684 37.044 90.5862 37.0751 90.8181 37.0751C91.4516 37.0751 91.9606 36.8828 92.3453 36.4982C92.7242 36.1192 92.9137 35.596 92.9137 34.9285V30.9493H92.1671V31.5262H92.1332C91.9861 31.3056 91.7853 31.1331 91.5308 31.0087C91.2819 30.8786 91.0104 30.8135 90.7162 30.8135C90.1732 30.8135 89.7066 31.0285 89.3163 31.4584C88.9317 31.8883 88.7394 32.4115 88.7394 33.028C88.7394 33.6445 88.9317 34.1706 89.3163 34.6061C89.7066 35.0303 90.1732 35.2425 90.7162 35.2425C91.0104 35.2425 91.2819 35.1802 91.5308 35.0558C91.7853 34.9257 91.9861 34.7504 92.1332 34.5298H92.1671V34.9285C92.1671 35.3754 92.0483 35.7261 91.8107 35.9806C91.5732 36.2351 91.2423 36.3624 90.8181 36.3624C90.5409 36.3624 90.2977 36.2889 90.0884 36.1418C89.8791 35.9947 89.732 35.7996 89.6472 35.5564L88.909 35.8618C88.9713 36.0428 89.0618 36.2069 89.1805 36.3539C89.2993 36.501 89.4407 36.6283 89.6048 36.7357C89.7745 36.8432 89.9611 36.9252 90.1648 36.9818ZM98.3755 35.1067V32.6462H99.6651C100.197 32.6462 100.644 32.4737 101.006 32.1286C101.379 31.7836 101.566 31.3537 101.566 30.839C101.566 30.3356 101.379 29.9085 101.006 29.5578C100.638 29.2071 100.191 29.0318 99.6651 29.0318H97.5949V35.1067H98.3755ZM81.6746 35.1067V30.9493H80.894V35.1067H81.6746ZM99.6821 31.8996H98.3755V29.7784H99.6821C99.9932 29.7784 100.251 29.8859 100.454 30.1008C100.663 30.3101 100.768 30.5562 100.768 30.839C100.768 31.1275 100.663 31.3764 100.454 31.5856C100.251 31.7949 99.9932 31.8996 99.6821 31.8996ZM103.935 35.1067V29.0318H103.154V35.1067H103.935ZM107.143 34.5467C106.911 34.5467 106.708 34.4789 106.532 34.3431C106.363 34.2073 106.278 34.0377 106.278 33.834C106.278 33.6078 106.383 33.4183 106.592 33.2656C106.807 33.1128 107.073 33.0365 107.389 33.0365C107.825 33.0365 108.164 33.1326 108.407 33.325C108.407 33.653 108.277 33.9387 108.017 34.1819C107.763 34.4251 107.471 34.5467 107.143 34.5467ZM108.654 31.2802C108.32 30.9691 107.864 30.8135 107.288 30.8135C106.547 30.8135 105.987 31.0851 105.608 31.6281L106.295 32.0608C106.549 31.6931 106.894 31.5093 107.33 31.5093C107.618 31.5093 107.87 31.6054 108.085 31.7977C108.3 31.9844 108.407 32.2135 108.407 32.485V32.6632C108.108 32.4935 107.726 32.4086 107.262 32.4086C106.719 32.4086 106.284 32.5359 105.955 32.7904C105.633 33.045 105.472 33.3872 105.472 33.8171C105.472 34.2243 105.625 34.5637 105.93 34.8352C106.241 35.1067 106.626 35.2425 107.084 35.2425C107.621 35.2425 108.051 35.0049 108.374 34.5298H108.407V35.1067H109.154V32.5444C109.154 32.007 108.987 31.5856 108.654 31.2802ZM111.622 34.8607C111.849 35.0699 112.129 35.1746 112.462 35.1746C112.728 35.1746 112.966 35.1378 113.175 35.0643L112.929 34.3686C112.81 34.4195 112.686 34.4449 112.556 34.4449C112.42 34.4449 112.301 34.3912 112.199 34.2837C112.103 34.1762 112.055 34.0009 112.055 33.7577V31.662H113.922V35.1067H114.702V31.662H115.788V30.9493H114.702V30.4233C114.702 30.2027 114.762 30.0273 114.88 29.8972C115.005 29.7615 115.163 29.6936 115.356 29.6936C115.525 29.6936 115.678 29.7275 115.814 29.7954L116.026 29.1082C115.845 29.012 115.613 28.9639 115.33 28.9639C114.917 28.9639 114.578 29.0912 114.312 29.3457C114.052 29.6003 113.922 29.934 113.922 30.3469V30.9493H112.055V29.6766H111.275V30.9493H110.545V31.662H111.275V33.9868C111.28 34.3601 111.396 34.6514 111.622 34.8607ZM117.506 31.4414C117.105 31.86 116.904 32.3888 116.904 33.028C116.904 33.6672 117.105 34.196 117.506 34.6146C117.913 35.0332 118.425 35.2425 119.042 35.2425C119.658 35.2425 120.167 35.0332 120.569 34.6146C120.976 34.2017 121.18 33.6728 121.18 33.028C121.18 32.3888 120.976 31.86 120.569 31.4414C120.167 31.0228 119.658 30.8135 119.042 30.8135C118.425 30.8135 117.913 31.0228 117.506 31.4414ZM118.075 34.114C117.814 33.8369 117.684 33.4749 117.684 33.028C117.684 32.5868 117.814 32.2276 118.075 31.9505C118.34 31.6677 118.663 31.5262 119.042 31.5262C119.421 31.5262 119.743 31.6677 120.009 31.9505C120.269 32.2276 120.399 32.5868 120.399 33.028C120.399 33.4749 120.269 33.8369 120.009 34.114C119.749 34.3912 119.426 34.5298 119.042 34.5298C118.657 34.5298 118.335 34.3912 118.075 34.114ZM122.671 35.1067H123.451V32.8159C123.451 32.4991 123.559 32.222 123.774 31.9844C123.994 31.7468 124.252 31.6281 124.546 31.6281C124.755 31.6281 124.908 31.6479 125.004 31.6875L125.242 30.9323C125.083 30.8645 124.891 30.8305 124.665 30.8305C124.427 30.8305 124.184 30.9097 123.935 31.0681C123.692 31.2208 123.531 31.4075 123.451 31.6281H123.418V30.9493H122.671V35.1067ZM126.618 35.1067H127.398V32.8074C127.398 32.4624 127.5 32.1626 127.704 31.908C127.908 31.6535 128.159 31.5262 128.459 31.5262C128.793 31.5262 129.03 31.6139 129.172 31.7893C129.313 31.959 129.384 32.2389 129.384 32.6292V35.1067H130.164V32.8074C130.164 32.4624 130.266 32.1626 130.47 31.908C130.673 31.6535 130.925 31.5262 131.225 31.5262C131.559 31.5262 131.796 31.6139 131.938 31.7893C132.079 31.959 132.15 32.2389 132.15 32.6292V35.1067H132.93V32.5104C132.93 31.9674 132.8 31.5489 132.54 31.2547C132.28 30.9606 131.909 30.8135 131.429 30.8135C130.818 30.8135 130.34 31.0794 129.995 31.6111C129.887 31.3622 129.718 31.1671 129.486 31.0257C129.254 30.8843 128.985 30.8135 128.68 30.8135C128.436 30.8135 128.19 30.8814 127.941 31.0172C127.698 31.1529 127.517 31.3226 127.398 31.5262H127.364V30.9493H126.618V35.1067ZM112.198 6.41725H116.845L122.557 12.5381L119.81 14.98L112.198 6.41725ZM131.313 6.41725H135.961L128.348 14.98L125.602 12.5381L131.313 6.41725Z" fill="#1C2348"/>
</svg>
