<svg width="1253" height="604" viewBox="0 0 1253 604" fill="none" xmlns="http://www.w3.org/2000/svg">
<path d="M200.882 591.572C187.32 604.676 156.237 607.178 142.654 600.208C129.071 593.238 139.08 576.511 135.484 562.287C132.435 550.212 144.34 539.537 155.822 540.016C156.024 540.016 156.228 540.035 156.433 540.05C158.286 540.186 160.103 540.633 161.809 541.374C174.579 546.951 175.6 550.45 187.508 550.017C218.231 548.903 214.443 578.466 200.882 591.572Z" fill="#FAE0B2"/>
<path d="M897.534 38.6385C904.5 21.1142 931.798 6.04025 947.046 6.80214C962.294 7.56403 960.057 26.9277 969.189 38.4112C976.938 48.1608 970.481 62.7899 959.82 67.0793C959.636 67.1625 959.441 67.2288 959.249 67.2991C957.504 67.938 955.664 68.2781 953.804 68.3054C939.871 68.4786 937.5 65.71 926.826 71.006C899.284 84.666 890.569 56.1648 897.534 38.6385Z" fill="#F7CC7F"/>
<path d="M65.8816 258.572C52.3202 271.676 21.2369 274.178 7.65403 267.208C-5.92884 260.238 4.07982 243.511 0.484101 229.287C-2.56538 217.212 9.34006 206.537 20.8218 207.016C21.024 207.016 21.2283 207.035 21.4326 207.05C23.2855 207.186 25.1028 207.633 26.809 208.374C39.5789 213.951 40.6004 217.45 52.508 217.017C83.2308 215.903 79.443 245.466 65.8816 258.572Z" fill="#F1FFEC"/>
<path d="M1242.88 226.572C1229.32 239.676 1198.24 242.178 1184.65 235.208C1171.07 228.238 1181.08 211.511 1177.48 197.287C1174.43 185.212 1186.34 174.537 1197.82 175.016C1198.02 175.016 1198.23 175.035 1198.43 175.05C1200.29 175.186 1202.1 175.633 1203.81 176.374C1216.58 181.951 1217.6 185.45 1229.51 185.017C1260.23 183.903 1256.44 213.466 1242.88 226.572Z" fill="#FE875E"/>
<path d="M380.834 146.648C349.786 176.541 278.621 182.25 247.524 166.349C216.426 150.448 239.341 112.291 231.108 79.8416C224.127 52.2958 251.384 27.9431 277.671 29.0354C278.134 29.0354 278.602 29.0799 279.069 29.1145C283.312 29.4242 287.472 30.445 291.378 32.1345C320.615 44.857 322.954 52.8395 350.216 51.851C420.555 49.3104 411.883 116.749 380.834 146.648Z" fill="#96D9C9"/>
</svg>
