<svg width="695" height="540" viewBox="0 0 695 540" fill="none" xmlns="http://www.w3.org/2000/svg">
<path d="M608.994 435.136C493.722 545.701 229.514 566.814 114.059 508.003C-1.39511 449.192 83.6785 308.061 53.1149 188.044C27.1943 86.1626 128.391 -3.90926 225.986 0.130907C227.704 0.130907 229.441 0.295438 231.177 0.423407C246.927 1.56908 262.374 5.34459 276.876 11.5933C385.421 58.6493 394.104 88.1736 495.318 84.5173C756.462 75.1207 724.265 324.553 608.994 435.136Z" fill="#F1FFEC"/>
<path d="M361.528 259.761L357.221 253.555H349.664C348.788 253.555 348.314 252.57 348.825 251.876L353.424 245.853L351.088 238.662C350.832 237.859 351.599 237.056 352.402 237.348L359.52 239.867L365.616 235.413C366.31 234.902 367.295 235.413 367.259 236.289L367.076 243.846L373.209 248.262C373.903 248.774 373.72 249.869 372.88 250.088L365.653 252.241L363.317 259.432C363.134 260.309 362.039 260.491 361.528 259.761Z" fill="#F47458"/>
<path d="M560.982 122.801L564.96 113.566L559.631 105.06C559.01 104.075 559.777 102.834 560.945 102.943L570.947 103.892L577.408 96.1901C578.138 95.314 579.562 95.6425 579.817 96.7741L582.007 106.594L591.316 110.353C592.374 110.791 592.484 112.252 591.498 112.836L582.847 117.946L582.153 127.984C582.08 129.116 580.73 129.7 579.854 128.933L572.298 122.29L562.551 124.736C561.493 124.955 560.544 123.823 560.982 122.801Z" fill="#F7CC7F"/>
<path d="M40.555 376.389L35.4445 366.606L24.4935 365.255C23.2524 365.109 22.7049 363.576 23.581 362.7L31.3196 354.815L29.2025 343.974C28.9469 342.733 30.2245 341.783 31.3561 342.331L41.2485 347.222L50.8854 341.857C51.9805 341.236 53.2946 342.149 53.1121 343.39L51.5059 354.304L59.5731 361.824C60.4857 362.663 60.0477 364.233 58.8066 364.416L47.9286 366.241L43.2562 376.243C42.7452 377.447 41.139 377.484 40.555 376.389Z" fill="#9BC1F9"/>
<path d="M624.789 141.345L624.935 146.711L616.357 147.842L615.591 155.691L609.312 157.625L610.261 160.801L618.657 158.209L619.387 150.799L628.33 149.594L628.111 141.564L624.789 141.345Z" fill="#466EB6"/>
<path d="M149.772 86.6263C150.247 83.122 153.605 80.5668 157.11 81.0778C160.76 81.5889 162.841 84.5456 162.512 88.2325C162.111 91.9193 159.3 94.438 155.43 94C151.525 93.5619 149.261 90.4227 149.772 86.6263ZM153.24 77.026L154.956 48.8455C155.102 46.5093 157.146 44.7936 159.482 45.0491L162.293 45.3777C164.593 45.6332 166.235 47.7869 165.87 50.0866L161.38 77.9386L153.24 77.026Z" fill="#F48C7F"/>
<path d="M131.923 228.368C132.106 235.34 133.931 250.343 149.773 252.826C159.593 254.359 172.186 245.525 171.383 239.027C170.58 232.53 168.755 216.03 158.498 212.234C149.919 209.095 131.485 212.781 131.923 228.368Z" fill="#184655"/>
<path d="M264.101 454.177C266.328 463.595 268.117 477.174 268.774 477.904C269.102 478.269 269.723 480.642 270.051 481.007C280.272 484.731 289.289 480.898 296.407 476.663C290.822 475.678 283.302 474.656 282.243 473.889C278.374 471.151 279.287 461.368 278.593 452.608C275.819 453.155 269.102 451.403 264.101 454.177Z" fill="#F7A491"/>
<path d="M268.555 477.393C268.628 481.117 271.001 489.038 271.767 489.038C272.643 489.038 303.379 486.373 306.299 481.664C308.051 478.817 303.306 478.087 296.407 476.736C289.252 480.934 269.395 479.73 268.555 477.393Z" fill="#466EB6"/>
<path d="M118.089 475.167C110.971 480.751 103.779 485.205 102.867 485.606C102.429 485.825 99.9831 485.789 99.5086 486.008C93.1935 494.878 94.4711 504.552 96.6248 512.546C99.0705 507.435 101.954 500.281 103.086 499.66C104.875 498.638 111.263 494.842 122.761 490.169C118.892 485.971 119.439 480.751 118.089 475.167Z" fill="#F7A491"/>
<path d="M134.296 278.633L112.321 318.604C112.321 318.604 97.6101 337.111 90.054 346.602C91.6966 349.267 93.2662 352.005 94.6534 354.816C102.173 348.427 118.198 334.848 123.892 327.329C132.325 316.232 147.62 289.913 147.62 289.913L134.296 278.633Z" fill="#F7A491"/>
<path d="M192.738 348.208L169.23 382.886C169.23 382.886 167.879 380.55 176.311 383.653C184.744 386.719 239.024 396.867 242.236 400.7C244.499 403.401 261.327 456.659 264.576 463.485C269.468 465.456 276.549 463.266 281.587 462.536C281.915 436.874 268.336 390.187 264.686 384.711C256.582 372.483 218.034 359.268 200.659 351.858C197.848 350.654 195.658 349.559 194.307 348.938C193.285 348.427 192.738 348.208 192.738 348.208Z" fill="#3C8F7C"/>
<path d="M102.502 485.716C98.8879 484.767 91.5872 484.803 91.3682 485.533C91.1492 486.373 85.4547 516.707 89.2511 520.759C91.5143 523.205 93.4854 518.824 96.6612 512.546C94.5075 504.588 100.056 485.935 102.502 485.716Z" fill="#466EB6"/>
<path d="M186.569 372.593C186.788 370.001 192.336 354.779 194.307 348.865C194.38 348.683 192.92 345.252 191.351 340.324L189.087 340.689L155.687 342.185C155.687 342.185 142.217 364.927 143.787 375.367C145.977 389.932 167.039 441.766 163.827 444.212C158.06 448.629 129.697 465.055 115.132 474.802C116.081 480.46 118.673 488.308 122.25 492.798C134.114 488.673 185.291 468.049 190.584 452.206C195.22 438.262 186.204 377.046 186.569 372.593Z" fill="#50BFA5"/>
<path d="M186.021 244.868C186.021 244.868 176.822 259.323 171.383 259.834L190.584 277.574C190.584 277.574 203.652 257.972 205.039 254.614C205.003 254.65 193.102 244.028 186.021 244.868Z" fill="#F7CC7F"/>
<path d="M192.738 332.22C191.862 340.177 194.344 348.902 194.344 348.902C186.642 350.544 159.264 354.049 152.584 345.908C152.329 345.616 162.075 328.496 160.724 321.488C158.753 311.157 150.175 293.672 149.481 292.723C148.277 291.154 143.896 299.294 143.896 299.294C138.749 299.33 126.995 287.394 126.995 287.394C126.995 287.394 139.151 266.222 142.509 264.214C145.868 262.206 173.5 259.213 173.5 259.213C175.545 259.067 181.093 263.886 182.626 265.419C200.075 282.867 195.366 307.836 192.738 332.22Z" fill="#FAE0B2"/>
<path d="M157.914 250.343C157.914 250.343 160.943 260.308 160.943 264.36C160.98 268.412 162.586 273.924 171.055 273.084C179.523 272.245 172.588 263.703 171.383 259.87C170.179 256.037 168.719 243.882 168.719 243.882L157.914 250.343Z" fill="#F7A491"/>
<path d="M169.558 249.942C169.084 246.62 168.755 243.846 168.755 243.846L157.914 250.307C157.914 250.307 158.534 252.351 159.191 254.943C164.302 255.454 167.696 253.264 169.558 249.942Z" fill="#F47458"/>
<path d="M149.08 220.301C149.08 220.301 144.626 223.404 143.458 229.281C142.327 235.158 145.794 249.65 158.388 251.913C170.982 254.213 175.07 242.021 171.639 233.187C168.207 224.353 161.527 213.402 149.08 220.301Z" fill="#F7A491"/>
<path d="M170.245 233.994C171.676 233.987 172.826 231.987 172.813 229.527C172.801 227.068 171.63 225.08 170.199 225.087C168.767 225.095 167.617 227.094 167.63 229.554C167.643 232.014 168.813 234.001 170.245 233.994Z" fill="#F7A491"/>
<path d="M149.537 247.425C150.884 246.302 150.635 243.784 148.982 241.803C147.329 239.821 144.897 239.126 143.551 240.249C142.204 241.373 142.452 243.89 144.105 245.872C145.758 247.853 148.19 248.549 149.537 247.425Z" fill="#F7A491"/>
<path d="M136.194 214.753C136.705 207.999 141.487 182.812 126.082 180.439C110.678 178.067 107.393 194.858 98.8509 172.226C90.9297 151.237 67.4216 159.377 66.436 175.293C64.2093 175.11 61.9096 175.439 59.7559 176.351C52.2363 179.527 48.8415 188.543 52.1998 196.501C52.7473 197.779 52.4188 199.02 53.2219 200.078C51.4332 207.014 52.6743 214.935 58.0038 223.002C72.6416 245.014 87.3159 221.834 97.2082 223.075C107.101 224.316 100.64 232.055 109.218 238.078C117.796 244.101 124.695 242.531 138.639 226.069L142.071 221.542C142.034 221.542 135.683 221.542 136.194 214.753Z" fill="#184655"/>
<path d="M568.976 406.467C576.678 403.401 583.613 399.203 584.416 398.765C585.037 398.437 587.665 396.502 588.03 396.247C594.82 400.298 597.339 403.73 602.668 409.132C598.689 409.351 597.01 406.102 595.513 406.431C593.688 406.833 587.921 410.702 578.868 417.71C577.335 412.673 572.772 410.118 568.976 406.467Z" fill="#F8A492"/>
<path d="M459.758 485.57C461.51 493.71 464.723 500.901 465.088 501.741C465.27 502.142 466.475 502.434 466.657 502.872C461.547 508.895 459.32 518.934 453.078 523.351C453.516 519.408 456.181 511.998 456.108 510.429C455.998 508.567 453.151 502.215 447.749 492.14C453.042 491.447 455.524 488.709 459.758 485.57Z" fill="#F8A492"/>
<path d="M463.007 503.42C463.7 501.668 466 500.463 467.643 501.485C469.285 502.544 471.476 503.675 473.118 504.807C474.98 506.085 475.089 507.508 475.053 507.837C474.907 508.786 453.114 534.302 450.304 534.667C447.493 535.032 452.676 513.458 455.743 511.232C458.48 509.26 459.868 511.305 463.007 503.42Z" fill="#3C8F7C"/>
<path d="M587.41 398.802C585.804 397.816 585.037 395.298 586.351 393.874C587.665 392.45 589.199 390.479 590.622 389.055C592.228 387.486 593.652 387.595 593.944 387.705C594.857 387.997 616.028 414.024 615.882 416.834C615.736 419.645 595.441 410.702 593.798 407.307C592.374 404.277 594.601 403.292 587.41 398.802Z" fill="#3C8F7C"/>
<path d="M468.117 390.479C468.117 390.479 511.118 448.446 518.638 448.994C525.646 449.505 579.89 419.243 579.89 419.243L572.845 403.62L529.406 419.243L499.145 362.006L468.117 390.479Z" fill="#B75742"/>
<path d="M492.867 341.492C492.867 341.492 500.751 343.353 505.241 355.363C509.731 367.372 502.211 377.338 483.339 394.713C464.978 411.651 446.836 427.566 446.836 427.566L461.729 488.855L449.355 499.368C449.355 499.368 420.663 437.057 419.824 422.237C419.495 416.579 463.591 350.873 463.591 350.873L492.867 341.492Z" fill="#F47458"/>
<path d="M459.575 266.441L435.593 279.838L416.575 288.964C416.575 288.964 411.939 273.194 413.508 265.456C413.727 264.361 414.822 263.047 415.224 262.463C418.363 257.754 411.647 250.453 411.647 250.453C411.647 250.453 407.595 249.321 404.857 255.965C402.119 262.609 407.193 265.456 407.193 265.456C407.193 265.456 401.426 285.606 403.835 300.316C405.113 308.019 424.35 302.361 439.681 295.717C452.567 290.132 462.058 283.926 462.058 283.926L459.575 266.441Z" fill="#F7A491"/>
<path d="M464.978 264.141C464.467 263.667 463.627 263.375 462.277 263.886C459.32 264.981 430.519 280.823 430.519 280.823C430.519 280.823 433.11 294.658 439.864 298.892L454.355 294.475L465.452 266.441C465.744 265.638 465.598 264.725 464.978 264.141Z" fill="#3C8F7C"/>
<path d="M531.268 205.006C520.353 198.326 506.701 199.604 498.598 208.583C491.917 206.065 484.252 206.284 478.083 209.167C465.854 214.862 455.049 229.792 464.248 240.597C462.277 254.942 470.892 263.302 481.587 264.251C487.391 275.932 508.052 277.136 519.915 267.5C529.735 271.296 541.379 269.653 548.607 262.572C550.359 260.856 552.914 258.155 553.462 257.899C552.768 258.264 580.766 254.541 579.489 229.828C578.211 204.678 548.059 195.004 531.268 205.006Z" fill="#FE875E"/>
<path d="M481.587 262.243L499.364 263.229L496.407 288.087C496.407 288.087 487.829 311.997 491.333 323.495C494.837 334.994 498.196 343.39 498.196 343.39C498.196 343.39 488.084 354.998 459.685 352.625C459.685 352.625 460.05 332.001 459.685 325.759C459.32 319.517 452.056 293.49 453.041 287.613C454.027 281.736 460.305 265.492 461.912 264.105C463.554 262.717 469.979 262.024 469.979 262.024L481.587 262.243Z" fill="#50BFA5"/>
<path d="M482.426 248.591C482.426 248.591 482.134 250.599 481.842 253.19C481.477 256.403 481.149 260.527 481.441 262.718C481.988 266.696 478.265 277.1 469.833 277.501C461.4 277.866 469.65 265.966 470.307 262.024C470.928 258.082 470.928 243.772 470.928 243.772L482.426 248.591Z" fill="#F7A491"/>
<path d="M471.001 249.832C471.001 246.51 470.928 243.772 470.928 243.772L482.426 248.591C482.426 248.591 482.098 250.672 481.806 253.3C476.915 254.504 473.264 252.789 471.001 249.832Z" fill="#F47458"/>
<path d="M483.302 219.06C483.302 219.06 488.157 220.776 490.676 225.85C493.195 230.924 493.669 245.05 482.718 250.307C471.767 255.563 464.978 245.452 465.89 236.509C466.876 227.602 470.198 215.884 483.302 219.06Z" fill="#F7A491"/>
<path d="M465.182 228.762C463.858 229.119 463.28 231.239 463.89 233.497C464.5 235.755 466.067 237.295 467.391 236.937C468.714 236.58 469.292 234.46 468.683 232.202C468.073 229.944 466.505 228.404 465.182 228.762Z" fill="#F7A491"/>
<path d="M493.993 235.467C492.488 234.784 490.443 236.045 489.426 238.284C488.409 240.524 488.805 242.893 490.31 243.577C491.815 244.26 493.86 242.999 494.877 240.76C495.894 238.52 495.498 236.151 493.993 235.467Z" fill="#F7A491"/>
<path d="M252.237 346.967C250.558 342.112 182.48 143.753 179.486 135.066C174.923 121.815 160.359 114.66 146.925 119.15L45.3734 152.989C31.9402 157.442 24.7491 171.824 29.312 185.112L102.063 397.013C106.626 410.264 121.191 417.418 134.624 412.928L236.176 379.09C249.609 374.636 256.8 360.254 252.237 346.967ZM227.561 352.333L124.95 386.5C117.212 389.092 108.816 384.967 106.188 377.301L38.9124 181.352C36.2841 173.686 40.4455 165.4 48.1842 162.845L150.795 128.678C158.533 126.086 166.929 130.211 169.557 137.876C185.911 185.477 235.373 329.591 236.833 333.862C239.461 341.455 235.3 349.741 227.561 352.333Z" fill="#355389"/>
<path d="M201.279 375.293C202.848 379.856 195.657 386.354 185.217 389.822C174.777 393.29 165.067 392.413 163.498 387.851C161.928 383.288 169.119 376.79 179.559 373.322C189.963 369.854 199.709 370.731 201.279 375.293Z" fill="#184655"/>
<path d="M198.505 375.659C199.965 379.929 194.015 385.807 185.218 388.727C176.42 391.647 168.061 390.552 166.601 386.281C165.141 382.01 171.091 376.133 179.888 373.213C188.685 370.293 197.008 371.388 198.505 375.659Z" fill="#355389"/>
<path d="M572.407 148.608L458.262 122.801C443.186 119.406 428.292 128.313 425.044 142.731L372.954 373.103C369.705 387.522 379.269 401.977 394.381 405.409L508.527 431.216C523.602 434.611 538.496 425.704 541.745 411.286L593.835 180.914C597.083 166.495 587.52 152.04 572.407 148.608ZM534.809 390.917C532.911 399.24 524.332 404.387 515.645 402.415L400.331 376.352C391.643 374.381 386.095 366.058 387.993 357.735L436.177 144.666C438.075 136.343 446.654 131.196 455.341 133.168L570.655 159.231C579.343 161.202 584.891 169.525 582.993 177.848L534.809 390.917Z" fill="#86B1F2"/>
<path d="M454.826 412.702C466.546 415.352 476.954 413.482 478.075 408.527C479.195 403.571 470.602 397.407 458.882 394.757C447.162 392.108 436.753 393.977 435.633 398.933C434.513 403.888 443.106 410.053 454.826 412.702Z" fill="#466EB6"/>
<path d="M455.416 411.698C465.307 413.934 474.179 411.969 475.233 407.309C476.286 402.648 469.122 397.058 459.231 394.822C449.34 392.586 440.467 394.551 439.414 399.211C438.36 403.872 445.525 409.462 455.416 411.698Z" fill="#86B1F2"/>
<path d="M498.67 269.653C498.67 269.653 536.159 260.527 544.555 258.994C552.914 257.461 581.934 246.985 583.029 246.547C584.161 246.109 588.286 231.179 589.928 232.237C591.571 233.296 587.41 239.757 589.454 240.597C591.498 241.436 608.983 233.624 609.093 235.012C609.312 237.676 598.58 240.195 598.908 241.436C599.237 242.641 609.859 237.749 611.173 239.574C612.487 241.4 600.697 243.298 600.478 244.32C600.259 245.342 611.794 244.028 611.173 246.218C610.845 247.423 600.879 247.167 601.317 248.554C601.756 249.941 609.312 251.292 608.801 252.643C608.29 253.957 602.595 250.671 598.689 251.657C594.783 252.643 591.425 251.365 585.658 254.76C579.89 258.155 560.981 272.427 547.512 275.384C534.079 278.341 504.365 284.912 504.365 284.912L498.67 269.653Z" fill="#F7A491"/>
<path d="M489.581 263.885C490.859 263.265 494.728 263.192 499.364 263.228C501.08 263.228 503.453 263.265 505.278 263.192C512.067 263.009 518.492 263.301 518.492 263.301C518.492 263.301 521.887 279.764 519.076 283.962C519.076 283.962 492.575 287.758 493.195 289.584L489.581 263.885Z" fill="#50BFA5"/>
<path d="M397.666 263.959L399.966 261.075C399.966 261.075 401.389 258.885 403.506 258.666C405.66 258.447 405.587 255.782 403.324 256.147C401.061 256.512 399.637 257.06 399.637 257.06C399.637 257.06 404.127 254.76 404.2 254.468C404.638 252.789 402.156 252.132 398.834 254.614C395.549 257.06 397.666 263.959 397.666 263.959Z" fill="#F7A491"/>
<path d="M91.4406 350.654C89.9805 351.457 88.9949 352.151 88.5203 352.516C88.5568 352.479 88.5568 352.406 88.5933 352.37C89.0679 351.859 90.7105 350.107 90.7105 350.107C92.8642 348.464 91.7326 346.712 89.7249 347.807C87.7172 348.902 86.5492 349.851 86.5492 349.851C86.5492 349.851 90.0535 346.42 90.017 345.909C89.9805 344.157 87.3522 344.339 84.9795 347.77C82.9353 350.764 85.9651 355.984 86.8412 357.188C87.7173 358.977 89.2869 359.816 89.2869 359.816L89.8345 356.422C89.8345 356.422 90.455 353.866 92.4262 352.99C94.3608 352.078 93.4483 349.559 91.4406 350.654Z" fill="#F7A491"/>
<path d="M405.952 253.519C405.952 253.519 411.282 249.248 412.121 251.073C412.961 252.898 412.596 256.84 411.793 256.548C410.99 256.256 411.099 253.446 408.799 254.212C408.215 254.395 405.04 255.38 405.952 253.519Z" fill="#F7A491"/>
<path d="M499.328 107.433L307.905 66.6224C297.136 64.3227 290.274 53.7367 292.574 43.0048L296.26 25.7753C298.56 15.0068 309.146 8.1442 319.878 10.4439L511.301 51.2545C522.069 53.5542 528.932 64.1402 526.632 74.8721L522.945 92.1016C520.682 102.87 510.096 109.733 499.328 107.433Z" fill="#96D9C9"/>
<path d="M465.197 93.2705L482.828 117.326L488.486 99.5126L465.197 93.2705Z" fill="#96D9C9"/>
<path d="M343.984 45.0566C348.854 46.0948 353.548 43.4361 354.468 39.1182C355.389 34.8002 352.187 30.4582 347.317 29.4199C342.447 28.3817 337.753 31.0404 336.832 35.3584C335.912 39.6763 339.114 44.0184 343.984 45.0566Z" fill="white"/>
<path d="M345.686 44.9764L342.51 44.2828C336.414 42.9687 330.391 46.8746 329.077 52.9706L327.836 58.7746L353.132 64.1771L354.374 58.3731C355.688 52.277 351.782 46.254 345.686 44.9764Z" fill="white"/>
<path d="M399.98 70.1867C414.905 73.3687 428.453 69.1552 430.239 60.7756C432.026 52.396 421.375 43.0235 406.449 39.8415C391.524 36.6596 377.976 40.8731 376.189 49.2526C374.403 57.6322 385.054 67.0047 399.98 70.1867Z" fill="white"/>
<path d="M405.587 67.3162L396.973 75.4564L417.414 70.6015L416.648 57.4238L405.587 67.3162Z" fill="white"/>
<path d="M468.373 66.1118L471.476 64.5787C472.425 64.1041 472.899 63.009 472.644 61.987C472.096 59.9793 470.965 56.6575 468.774 54.0658C468.117 53.2992 467.022 53.0437 466.073 53.4817L460.671 56.1099C459.977 56.4385 459.539 57.0955 459.43 57.8621C459.065 61.0379 458.627 69.8351 464.175 77.2818C470.49 85.7506 476.988 90.0214 481.551 92.1021C482.281 92.4306 483.157 92.3576 483.814 91.8466L488.815 88.1963C489.691 87.5392 489.983 86.3711 489.472 85.3855C488.486 83.4143 486.333 80.2386 482.281 78.0119C481.441 77.5373 480.419 77.6833 479.725 78.3039L477.864 79.9465C477.097 80.6401 475.966 80.7131 475.126 80.1291C473.301 78.9244 470.198 75.9677 467.278 68.9956C466.84 67.9005 467.314 66.6594 468.373 66.1118Z" fill="white"/>
<path d="M280.235 261.258L251.361 243.736C248.441 241.947 247.492 238.151 249.28 235.194L266.802 206.32C268.591 203.4 272.387 202.451 275.344 204.24L304.218 221.761C307.138 223.55 308.087 227.346 306.298 230.303L288.777 259.177C286.988 262.097 283.155 263.046 280.235 261.258Z" fill="#96D9C9"/>
<path d="M295.458 237.677C296.516 236.582 296.188 234.501 294.581 233.114C287.682 226.981 279.761 222.126 271.183 218.695C269.212 217.928 267.204 218.585 266.729 220.046C262.714 231.873 264.101 227.419 262.386 234.282C261.984 235.888 262.897 237.531 264.393 238.115C265.999 238.735 267.898 238.078 268.628 236.509C269.029 235.632 269.431 234.756 269.832 233.917C270.307 232.931 271.584 232.53 272.716 233.114C275.673 234.61 278.483 236.326 281.185 238.224C282.207 238.954 282.462 240.268 281.805 241.144C281.221 241.911 280.637 242.641 280.09 243.408C279.068 244.795 279.36 246.729 280.674 247.861C281.915 248.92 283.776 248.956 285.018 247.898C286.259 246.766 293.231 239.976 295.458 237.677Z" fill="white"/>
<path d="M273.081 223.294C273.446 223.513 273.738 223.842 273.921 224.207L274.906 222.6L272.862 221.359L271.876 222.966C272.315 222.929 272.716 223.039 273.081 223.294Z" fill="#96D9C9"/>
<path d="M269.869 224.061C270.088 223.695 270.416 223.403 270.781 223.221L269.175 222.235L267.934 224.28L269.54 225.265C269.504 224.864 269.613 224.462 269.869 224.061Z" fill="#96D9C9"/>
<path d="M270.635 227.31C270.27 227.091 269.978 226.762 269.796 226.397L268.81 228.003L270.854 229.244L271.84 227.638C271.439 227.638 271.037 227.529 270.635 227.31Z" fill="#96D9C9"/>
<path d="M274.213 225.338C274.213 225.74 274.103 226.178 273.884 226.543C273.665 226.908 273.336 227.2 272.971 227.383L274.578 228.368L275.819 226.324L274.213 225.338Z" fill="#96D9C9"/>
<path d="M271.876 226.725C272.662 226.725 273.3 226.088 273.3 225.302C273.3 224.515 272.662 223.878 271.876 223.878C271.09 223.878 270.453 224.515 270.453 225.302C270.453 226.088 271.09 226.725 271.876 226.725Z" fill="#96D9C9"/>
<path d="M288.668 238.808C290.361 238.808 291.734 237.435 291.734 235.742C291.734 234.048 290.361 232.675 288.668 232.675C286.974 232.675 285.601 234.048 285.601 235.742C285.601 237.435 286.974 238.808 288.668 238.808Z" fill="#96D9C9"/>
<path d="M307.43 127.619C307.43 127.619 308.489 121.633 314.694 118.749C320.243 116.194 326.193 119.041 328.712 124.48C331.632 130.758 329.843 140.578 319.33 153.281C302.831 153.098 294.18 148.097 291.296 141.855C288.777 136.453 290.456 130.028 296.005 127.473C302.174 124.553 307.43 127.619 307.43 127.619Z" fill="#F48C7F"/>
<path d="M107.283 100.753L70.5977 118.238C66.2538 120.282 61.1069 118.457 59.0262 114.15L49.1703 93.4888C47.1261 89.145 48.9513 83.998 53.2587 81.9173L89.9444 64.4323C94.2883 62.3881 99.4353 64.2132 101.516 68.5206L111.372 89.1815C113.416 93.5253 111.591 98.7088 107.283 100.753Z" fill="#FAE0B2"/>
<path d="M55.6312 102.87L47.783 126.269L65.2315 113.383L55.6312 102.87Z" fill="#FAE0B2"/>
<path d="M68.5899 93.8175L73.2258 91.4448C73.2258 91.4448 76.9856 84.1806 76.4016 82.538C75.8175 80.8954 73.2623 78.0846 73.9559 77.2085C74.686 76.3689 76.4381 75.0913 78.6648 76.5515C80.271 77.6101 82.2056 83.4506 82.9357 83.5236C83.3737 83.5966 86.1115 82.319 88.0461 81.3334C89.3237 80.7128 90.8569 80.8223 92.025 81.6619C92.7916 82.246 93.0836 83.2681 92.6821 84.1806L92.0615 85.5678L93.4121 86.2613C94.4342 86.7724 94.8358 88.0135 94.3247 88.9991L93.8137 90.0212L94.6897 90.3862C95.8213 90.8607 96.2959 92.2113 95.6753 93.2699L95.2008 94.146L95.4198 94.292C96.2959 94.9126 96.5514 96.0807 96.0039 96.9933L95.4928 97.8329L83.1547 104.111C81.9866 104.695 80.7455 105.06 79.4314 105.134L74.7225 106.63C74.2114 106.776 73.6639 106.557 73.4448 106.083L68.1154 95.1681C67.8599 94.7301 68.0424 94.073 68.5899 93.8175Z" fill="white"/>
<path d="M371.968 151.164C399.674 144.885 425.299 153.573 429.169 170.583C431.103 179.089 427.234 188.068 419.422 195.734L436.36 218.293L408.252 204.166C401.828 207.926 394.271 210.956 385.985 212.854C358.279 219.133 332.654 210.445 328.785 193.434C324.915 176.387 344.226 157.479 371.968 151.164Z" fill="#FAE0B2"/>
<path d="M398.651 180.731C398.25 190.623 389.891 198.325 379.998 197.924C370.106 197.522 362.404 189.163 362.805 179.271C363.207 169.378 371.566 161.676 381.458 162.078C391.351 162.479 399.053 170.838 398.651 180.731Z" fill="#F7CC7F"/>
<path d="M371.055 182.483C370.836 187.776 374.961 192.229 380.254 192.448C385.547 192.667 390 188.542 390.219 183.249L371.055 182.483Z" fill="#EFEFEF"/>
<path d="M23.2891 230.485L14.1267 232.311L15.2583 240.925L6.35155 243.115L6.42456 251.475L0 254.212L1.38712 257.461L9.96538 253.811L9.89237 245.89L19.1642 243.59L18.0691 235.121L26.3553 233.479L23.2891 230.485Z" fill="#F48C7F"/>
<path d="M632.455 301.338L629.9 292.395L621.394 294.22L618.511 285.496L610.188 286.226L606.939 280.057L603.8 281.699L608.144 289.949L616.028 289.255L619.058 298.308L627.417 296.52L629.717 304.66L632.455 301.338Z" fill="#F7CC7F"/>
<path d="M24.7858 134.81L19.6754 136.38L16.2441 128.422L8.50538 129.809L4.96456 124.261L2.15381 126.086L6.89923 133.46L14.2364 132.145L17.8137 140.432L25.5159 138.059L24.7858 134.81Z" fill="#50BFA5"/>
<path d="M214.274 166.933C212.485 165.473 208.324 164.269 206.243 164.05C204.162 163.867 195.11 163.867 193.941 166.057C192.773 168.248 202.264 174.417 202.775 176.972C203.286 179.527 197.263 219.352 195.548 227.237C194.708 231.143 191.423 238.48 188.283 244.904C192.773 245.634 198.212 249.285 201.68 251.876C206.097 242.24 210.587 231.435 211.135 226.324C212.266 216.103 216.062 168.43 214.274 166.933Z" fill="#F7A491"/>
<path d="M240.556 98.271C237.453 98.0155 221.319 110.317 221.319 110.317L220.589 111.266C220.589 111.266 242.381 114.953 243.403 114.259C246.178 112.434 243.075 98.49 240.556 98.271ZM221.392 110.682C226.648 106.849 237.49 102.177 239.826 101.191C241.031 103.418 242.126 109.222 241.797 111.631C239.206 111.449 227.744 111.704 221.392 110.682Z" fill="#466EB6"/>
<path d="M216.975 88.0501C214.201 80.5669 211.463 80.9319 209.529 81.1874C207.594 81.443 198.906 87.612 199.709 92.3209C200.512 97.0664 217.924 110.865 217.924 110.865L219.092 109.514C219.056 109.55 219.786 95.5332 216.975 88.0501ZM202.337 91.8829C201.936 89.5102 207.959 84.5093 209.93 83.8522C210.405 83.7792 210.77 83.7427 211.098 83.8522C211.463 83.9617 212.777 84.6553 214.42 89.0356C216.209 93.8176 218.07 104.915 218.07 109.368C211.171 103.527 202.812 93.8906 202.337 91.8829Z" fill="#466EB6"/>
<path d="M218.07 113.821L219.019 114.077C219.969 114.332 220.954 113.785 221.21 112.872L222.013 110.098C222.268 109.149 221.721 108.163 220.808 107.908L219.859 107.652C218.91 107.397 217.924 107.944 217.669 108.857L216.866 111.631C216.574 112.58 217.121 113.529 218.07 113.821Z" fill="#466EB6"/>
<path d="M235.738 174.782L175.727 157.625C172.478 156.713 170.507 153.427 171.237 150.106L181.859 101.009L260.013 123.312L242.381 172.592C241.651 174.709 238.731 175.658 235.738 174.782Z" fill="#F47458"/>
<path d="M260.232 134.811L175.325 110.755L175.982 105.061C176.384 101.629 179.742 99.3661 183.064 100.352L259.793 122.473C262.531 123.276 264.174 125.539 263.371 127.437L260.232 134.811Z" fill="#FAE0B2"/>
<path d="M220.977 111.207L219.363 110.746L216.066 122.294L217.681 122.755L220.977 111.207Z" fill="#466EB6"/>
<path d="M219.765 123.289L217.729 122.708L205.325 166.164L207.36 166.745L219.765 123.289Z" fill="#466EB6"/>
<path d="M198.833 166.861L199.052 164.306C196.971 163.722 194.599 162.845 193.394 162.334L193.066 160.4C191.971 157.735 190.802 159.633 190.437 160.254C190.437 160.254 190.364 163.685 190.729 164.087C190.729 164.087 194.781 168.357 196.497 169.964C197.336 170.767 200.074 172.993 200.074 172.993L202.228 170L198.833 166.861Z" fill="#F7A491"/>
</svg>
