<svg width="340" height="233" viewBox="0 0 340 233" fill="none" xmlns="http://www.w3.org/2000/svg">
<path d="M334.941 226.786C328.16 233.338 312.618 234.589 305.827 231.104C299.036 227.619 304.04 219.255 302.242 212.143C300.717 206.106 306.67 200.768 312.411 201.008C312.512 201.008 312.614 201.018 312.716 201.025C313.643 201.093 314.551 201.317 315.404 201.687C321.789 204.476 322.3 206.225 328.254 206.008C343.615 205.452 341.721 220.233 334.941 226.786Z" fill="#FAE0B2"/>
<path d="M24.4083 155.009C16.9138 162.38 -0.263817 163.788 -7.77014 159.867C-15.2765 155.946 -9.74536 146.537 -11.7325 138.536C-13.4177 131.744 -6.83839 125.739 -0.49319 126.009C-0.381474 126.009 -0.26857 126.02 -0.155666 126.028C0.868312 126.105 1.87259 126.356 2.81549 126.773C9.87257 129.91 10.4371 131.878 17.0176 131.634C33.996 131.008 31.9027 147.637 24.4083 155.009Z" fill="#F1FFEC"/>
<path d="M303.28 12.5373C305.497 6.95869 314.187 2.16009 319.041 2.40263C323.895 2.64516 323.183 8.80933 326.09 12.465C328.557 15.5686 326.501 20.2256 323.107 21.5911C323.049 21.6176 322.987 21.6387 322.926 21.661C322.37 21.8644 321.785 21.9727 321.192 21.9814C316.757 22.0365 316.002 21.1552 312.604 22.8411C303.837 27.1896 301.062 18.1166 303.28 12.5373Z" fill="#F7CC7F"/>
<path d="M80.6804 50.5427C68.1897 62.6229 39.5603 64.9297 27.0498 58.504C14.5392 52.0784 23.7577 36.6585 20.4459 23.5456C17.6372 12.4141 28.6027 2.57288 39.178 3.0143C39.3642 3.0143 39.5524 3.03228 39.7406 3.04626C41.4472 3.17144 43.121 3.58395 44.6925 4.26667C56.4543 9.40798 57.3951 12.6338 68.3627 12.2343C96.6599 11.2076 93.1712 38.4604 80.6804 50.5427Z" fill="#96D9C9"/>
</svg>
