<svg width="1440" height="768" viewBox="0 0 1440 768" fill="none" xmlns="http://www.w3.org/2000/svg">
<rect width="1440" height="768" fill="#0AAD87"/>
<mask id="mask0_772_679" style="mask-type:alpha" maskUnits="userSpaceOnUse" x="0" y="0" width="1440" height="768">
<rect width="1440" height="768" fill="#1C2348"/>
</mask>
<g mask="url(#mask0_772_679)">
<path d="M1147.66 456.088C1147.41 455.839 1147.08 455.69 1146.72 455.671C1146.37 455.651 1146.02 455.762 1145.75 455.982C1145.47 456.201 1145.28 456.515 1145.22 456.863C1145.16 457.212 1145.23 457.57 1145.41 457.871C1146.27 460.065 1149.37 457.55 1147.66 456.088ZM1148.16 417.272C1147.79 417.262 1147.41 417.363 1147.1 417.564C1146.78 417.764 1146.53 418.054 1146.37 418.397C1146.22 418.74 1146.17 419.121 1146.23 419.492C1146.29 419.863 1146.46 420.208 1146.72 420.483C1148.73 422.659 1150.77 417.611 1148.16 417.272ZM1149.16 396.49C1147.86 396.259 1146.41 397.953 1148.2 399.077C1150.46 400.522 1151.53 396.936 1149.16 396.49ZM1030.36 401.592C1018.09 404.839 1003.19 409.833 990.223 413.633C989.581 413.829 989.028 415.542 991.722 414.739C1004.71 410.832 1017.59 406.319 1030.63 402.431C1030.72 402.382 1030.79 402.303 1030.84 402.205C1030.88 402.107 1030.88 401.999 1030.85 401.898C1030.82 401.797 1030.75 401.711 1030.66 401.655C1030.57 401.599 1030.46 401.577 1030.36 401.592ZM997.358 337.821C1002.89 341.085 1021.81 352.091 1027.09 354.607C1027.14 354.632 1027.19 354.648 1027.24 354.655C1027.28 354.661 1027.34 354.658 1027.38 354.644C1027.43 354.631 1027.48 354.608 1027.52 354.577C1027.56 354.546 1027.59 354.508 1027.61 354.464C1027.64 354.418 1027.65 354.368 1027.66 354.317C1027.66 354.265 1027.66 354.213 1027.64 354.163C1027.63 354.113 1027.6 354.067 1027.57 354.027C1027.54 353.986 1027.5 353.953 1027.45 353.929C1021.44 350.54 1003.99 340.176 997.929 336.786C997.358 336.465 996.93 337.5 997.358 337.821ZM1280.57 364.596C1290.76 356.908 1300.75 349.023 1311.09 341.567C1311.9 340.978 1310.97 339.783 1310.15 340.336C1300.18 347.578 1289.33 355.73 1280.04 363.882C1279.61 364.257 1280.11 364.953 1280.57 364.596ZM1026.77 379.402C1026.87 379.388 1026.97 379.336 1027.03 379.256C1027.09 379.176 1027.12 379.075 1027.11 378.973C1027.11 378.909 1027.08 378.847 1027.05 378.793C1027.01 378.74 1026.96 378.698 1026.9 378.67C1016.96 376.316 994.79 371.999 981.911 369.751C981.233 369.644 981.072 370.911 981.697 371.053C993.095 373.64 1015 377.707 1026.81 379.509L1026.77 379.402ZM1150.94 378.206C1148.8 377.386 1147.95 380.65 1150.07 381.203C1150.45 381.272 1150.84 381.196 1151.17 380.992C1151.5 380.788 1151.75 380.469 1151.85 380.098C1151.96 379.726 1151.93 379.327 1151.76 378.978C1151.59 378.629 1151.3 378.354 1150.94 378.206ZM1147.66 436.359C1144.75 435.788 1145.68 439.266 1146.9 439.266C1148.98 439.302 1149.68 436.733 1147.66 436.359ZM1307.46 424.71C1297.92 418.877 1288.05 413.623 1277.88 408.977C1277.33 408.71 1276.85 409.691 1277.42 409.958C1287.85 415.113 1296.7 420.322 1306.64 426.013C1307.47 426.458 1308.29 425.245 1307.46 424.71ZM1150.66 330.186C1149.41 329.116 1149.21 332.291 1146.2 334.771C1145.46 335.433 1144.57 335.904 1143.6 336.14C1142.64 336.377 1141.63 336.372 1140.67 336.126C1140.15 335.966 1140.47 336.751 1140.47 337.054C1140.76 338.454 1141.52 339.712 1142.62 340.621C1143.73 341.53 1145.11 342.033 1146.54 342.049C1152.67 341.942 1154.62 333.593 1150.66 330.186ZM1150.52 339.212C1147.31 342.905 1142.51 340.889 1141.06 336.822C1145.22 337.964 1148.36 334.36 1150.27 331.167C1151.19 332.294 1151.72 333.698 1151.75 335.156C1151.79 336.614 1151.33 338.042 1150.46 339.212H1150.52ZM1140.06 330.49C1137.21 330.49 1136.92 330.864 1136.83 327.457C1136.74 325.073 1136.86 322.685 1137.19 320.322C1137.2 320.281 1137.19 320.239 1137.18 320.199C1137.17 320.159 1137.15 320.122 1137.12 320.09C1137.1 320.059 1137.06 320.033 1137.03 320.014C1136.99 319.996 1136.95 319.985 1136.91 319.983C1136.87 319.978 1136.83 319.98 1136.79 319.99C1136.76 320 1136.72 320.017 1136.69 320.041C1136.66 320.064 1136.64 320.093 1136.62 320.126C1136.6 320.159 1136.59 320.195 1136.58 320.233C1136.17 322.373 1135.07 329.348 1136.87 330.936C1137.89 331.462 1139.06 331.595 1140.17 331.31C1140.79 331.185 1140.65 330.49 1140.06 330.49Z" fill="white"/>
<path d="M1266.37 288.606C1266.37 288.539 1266.36 288.472 1266.33 288.41C1266.31 288.349 1266.27 288.293 1266.22 288.246C1266.17 288.2 1266.12 288.163 1266.05 288.139C1265.99 288.115 1265.92 288.104 1265.86 288.106C1244.71 288.481 1223.81 283.469 1205.13 273.543C1186.45 263.616 1170.6 249.101 1159.08 231.363C1157.72 229.276 1157.97 229.776 1156.63 231.577C1143.84 248.367 1127.22 261.865 1108.16 270.951C1089.11 280.037 1068.16 284.451 1047.06 283.825C1045.56 283.825 1043.38 283.219 1043.63 284.325C1040.83 306.137 1039.61 328.123 1039.99 350.111C1041.03 390.55 1049.48 431.524 1070.12 466.701C1088.33 497.632 1116.39 523.73 1150.59 535.467C1152.67 536.463 1154.81 537.309 1157.01 538C1190.12 528.243 1218.93 503.572 1236.53 474.354C1241.82 464.988 1246.29 455.182 1249.89 445.046C1254.39 437.574 1256.85 429.057 1257.03 420.34C1261.96 400.939 1265 381.106 1266.11 361.118C1267.64 337.375 1266.37 288.641 1266.37 288.606ZM1245.54 448.417C1239.53 456.089 1232.4 462.807 1224.38 468.342C1217.68 465.498 1212.34 460.147 1209.52 453.43C1214.04 443.922 1218.25 429.794 1218.44 419.002C1218.44 418.717 1217.98 418.717 1217.94 419.002C1217.66 420.786 1217.43 422.57 1217.21 424.496C1210.08 418.485 1196.02 413.009 1187.53 409.887C1187.46 409.88 1187.4 409.895 1187.34 409.931C1187.29 409.967 1187.25 410.02 1187.23 410.083C1187.22 410.135 1187.23 410.188 1187.25 410.236C1187.27 410.283 1187.31 410.323 1187.35 410.351L1202.07 416.826C1203.42 427.118 1204.39 441.157 1205.08 459.762C1205.08 460.975 1202.94 462.598 1203.14 463.794C1196.36 467.241 1189.17 469.789 1181.73 471.375C1181.45 469.805 1179.95 470.786 1178.72 470.822C1177.86 470.715 1177.99 471.41 1178.13 472.07C1169.5 473.535 1160.79 474.44 1152.05 474.782C1152.05 474.496 1151.66 474.229 1150.69 474.193C1148.14 474.104 1143.02 474.193 1141.9 474.104C1141.13 444.273 1142.17 414.423 1145 384.717C1145.82 376.387 1146.95 368.271 1147.86 359.94C1149.21 362.848 1149.2 365.292 1150.03 368.074C1150.46 369.448 1167.02 366.719 1170.73 352.02C1189.42 353.251 1206.4 361.795 1221.48 372.338C1235.6 382.22 1252.96 395.028 1255.76 413.08C1257.79 425.727 1253.05 438.392 1245.54 448.417ZM1145 357.122C1143.46 356.442 1142.15 355.334 1141.22 353.929C1141.45 351.995 1141.42 350.038 1141.12 348.114C1141.01 347.757 1140.88 347.846 1140.63 347.882C1135.43 348.595 1130.63 344.938 1128.15 340.604C1125.15 335.252 1125.24 328.706 1125.33 322.766V312.455C1131.84 313.633 1147.16 312.562 1154.24 311.831C1153.76 315.113 1153.94 326.69 1158.44 324.995C1160.1 324.353 1160.4 322.088 1162 321.428C1163.61 320.768 1166.04 322.641 1163.79 327.011C1161.54 331.382 1161.47 332.523 1162.16 337.964C1162.71 342.304 1163.71 346.574 1165.16 350.7C1163.24 354.125 1160.09 356.692 1156.35 357.884C1152.61 359.076 1148.55 358.804 1145 357.122ZM1147.38 359.031C1145.17 361.101 1143.3 363.509 1141.85 366.166C1140.71 365.702 1136.35 364.132 1135.3 354.999C1136.96 354.607 1138.87 354.125 1140.47 353.875C1141.06 356.141 1145.18 358.371 1147.36 358.959L1147.38 359.031ZM1165.63 351.895L1169.85 352.038C1168.79 355.842 1166.7 359.279 1163.81 361.968C1160.91 364.656 1157.33 366.492 1153.46 367.272C1152.64 367.45 1151.82 367.557 1151 367.718C1150.5 364.798 1149.6 361.963 1148.3 359.298C1151.6 359.987 1155.03 359.646 1158.13 358.322C1161.23 356.998 1163.84 354.755 1165.63 351.895ZM1166.29 350.932C1166.29 350.397 1163.23 341.424 1163.38 338.927C1168.31 330.935 1171.07 321.79 1171.37 312.402C1172.3 312.454 1173.22 312.164 1173.96 311.587C1174.7 311.01 1175.2 310.185 1175.37 309.265C1175.54 308.346 1175.37 307.395 1174.9 306.591C1174.42 305.786 1173.67 305.182 1172.78 304.892C1178.02 302.234 1174.87 293.832 1169.3 295.527C1169.89 290.283 1164.32 286.447 1160.84 289.961C1159.29 282.684 1151.55 284.61 1150.66 287.874C1148.11 284.111 1142.28 284.503 1140.67 288.338C1137.64 285.324 1131.47 287.357 1132.55 291.906C1128.66 289.658 1124.76 292.423 1126.88 296.437C1122.78 296.437 1120.46 301.36 1123.58 303.804C1119.16 304.91 1119.16 310.939 1124.94 312.437C1124.42 323.354 1122.23 339.587 1132.45 346.687C1134.8 348.375 1137.69 349.154 1140.58 348.881C1140.56 350.234 1140.47 351.586 1140.31 352.93C1139.35 352.93 1131.95 354.892 1130.57 355.302C1117.53 359.172 1105.53 365.934 1095.47 375.085C1095.33 365.288 1094.61 355.508 1093.33 345.795C1093.24 345.17 1092.99 345.063 1091.95 345.135C1097.7 341.192 1100.82 333.415 1097.75 332.273C1100.82 332.059 1099.04 323.961 1091.9 324.799C1090.76 324.89 1089.69 325.406 1088.9 326.244C1088.9 321.892 1091.01 319.501 1090.24 318.449C1088.3 315.755 1084.03 322.623 1084.16 327.368C1083.77 325.441 1084.53 321.713 1083.77 320.786C1083 319.858 1082.18 320.643 1081.7 321.267C1079.13 324.639 1079.22 329.277 1079.29 333.29C1079.29 335.712 1079.45 338.132 1079.77 340.532C1079.57 340.532 1079.31 340.532 1079.18 340.693C1069.44 353.779 1062.55 368.756 1058.94 384.664C1054.78 356.569 1055.37 329.83 1057.15 301.556C1094.47 302.751 1133.27 283.718 1156.69 254.678C1177.06 284.289 1213.31 302.751 1249.2 301.949C1250.52 332.273 1250.25 361.349 1245.84 391.424C1237.42 381.774 1220.51 369.769 1209.54 363.49C1196.43 356.034 1181.55 350.593 1166.29 350.861V350.932ZM1084.23 329.74C1084.5 330.115 1085.23 329.74 1085.07 329.348C1084.93 329.081 1084.85 328.79 1084.82 328.492C1084.64 321.125 1089.85 317.111 1089.39 319.573C1088.92 322.034 1087.1 324.086 1088.12 328.688C1088.12 329.17 1089.15 328.956 1089.06 328.563C1088.98 328.324 1088.92 328.08 1088.87 327.832C1089.28 327.203 1089.84 326.691 1090.51 326.344C1091.17 325.997 1091.92 325.828 1092.67 325.852C1097.48 325.852 1098.87 329.972 1098.02 331.078C1097.16 332.184 1096.77 329.883 1095.84 329.098C1092.1 325.905 1088.71 331.132 1090.49 334.45C1091.76 336.697 1095.54 337.268 1096.18 334.628C1096.56 333.094 1097.97 332.844 1097.64 335.52C1097.25 341.371 1091.2 343.957 1090.54 344.76C1087 344.451 1083.62 343.126 1080.81 340.943C1080.72 335.805 1079.22 328.064 1081.41 323.408C1081.57 323.015 1082.71 321 1083.2 321.731C1083.68 322.462 1082.34 326.922 1084.28 329.669L1084.23 329.74ZM1097.25 332.273C1095.47 332.398 1096.15 335.056 1094.13 335.306C1092.11 335.556 1091.06 333.183 1091.61 331.06C1091.69 330.599 1091.91 330.173 1092.23 329.839C1092.56 329.504 1092.98 329.278 1093.44 329.191C1093.9 329.103 1094.37 329.159 1094.8 329.349C1095.23 329.54 1095.58 329.857 1095.82 330.258C1096.22 330.864 1096.31 331.81 1097.25 332.273ZM1092.2 346.009C1092.69 349.701 1092.86 353.144 1093.2 356.89H1089.42C1083.73 356.284 1078.46 353.642 1074.56 349.451L1079.77 341.496C1081.44 343.032 1083.4 344.222 1085.54 344.997C1087.67 345.771 1089.94 346.115 1092.2 346.009ZM1061.34 379.17C1064.31 368.937 1068.59 359.128 1074.06 349.987C1077.63 354.946 1085.23 357.782 1091.22 357.96C1091.98 358.02 1092.74 357.99 1093.49 357.871C1094.9 373.561 1094.9 389.345 1093.49 405.035C1093.49 405.356 1093.97 405.445 1094.01 405.035C1095.05 395.242 1095.54 385.397 1095.47 375.549C1095.51 375.574 1095.55 375.587 1095.6 375.587C1095.65 375.587 1095.7 375.574 1095.74 375.549C1107.08 365.834 1120.51 358.853 1134.98 355.142C1135.14 359.566 1137.16 365.541 1141.83 367.076C1143.1 367.486 1143.36 364.257 1147.34 360.083C1142.44 397.878 1140.35 435.983 1141.08 474.086C1139.3 474.086 1136.55 473.908 1134.91 473.783C1134.14 473.783 1134.12 474.354 1134.09 474.675C1127.63 474.25 1121.24 473.12 1115.04 471.303C1115.25 469.859 1113.47 470.019 1112.43 469.644C1111.97 469.377 1111.7 469.752 1111.66 470.215L1103.41 466.808C1103.41 458.175 1104.01 449.523 1104.69 440.907C1106.39 419.676 1109.63 398.596 1114.38 377.832C1114.39 377.774 1114.38 377.713 1114.35 377.662C1114.32 377.612 1114.27 377.574 1114.21 377.558C1114.16 377.542 1114.09 377.549 1114.04 377.576C1113.99 377.604 1113.95 377.651 1113.93 377.707C1109.46 394.785 1106.32 412.181 1104.51 429.741C1094.63 434.967 1083.11 437.179 1072.12 434.165C1064.22 431.97 1059.97 427.975 1057.7 419.769C1054.64 408.603 1058.22 389.801 1061.34 379.17ZM1151.32 475.067C1151.48 477.083 1151.57 479.117 1151.57 481.168C1145.93 481.668 1140.25 481.614 1134.62 481.007C1134.62 478.724 1134.62 476.94 1134.89 474.657C1141.33 475.21 1149.39 474.675 1151.32 475.067ZM1104.39 430.882C1102.62 447.761 1102.07 464.745 1102.75 481.703C1102.75 481.736 1102.76 481.768 1102.78 481.796C1102.79 481.825 1102.82 481.85 1102.84 481.87C1102.87 481.89 1102.9 481.904 1102.93 481.912C1102.96 481.921 1103 481.922 1103.03 481.917C1103.14 481.917 1103.67 481.81 1103.69 481.703V471.946C1106.09 473.573 1108.68 474.903 1111.4 475.906C1111.46 476.435 1111.55 476.959 1111.68 477.475C1111.68 477.761 1112.24 477.725 1112.22 477.475C1112.02 475.098 1112.07 472.706 1112.38 470.34L1114 470.857C1113.48 473.277 1113.51 475.783 1114.09 478.189C1114.1 478.226 1114.11 478.262 1114.13 478.294C1114.15 478.325 1114.18 478.352 1114.21 478.372C1114.24 478.393 1114.28 478.406 1114.32 478.411C1114.36 478.416 1114.39 478.414 1114.43 478.403C1114.49 478.39 1114.55 478.357 1114.59 478.308C1114.62 478.259 1114.65 478.198 1114.64 478.135V477.083C1120.93 478.945 1127.4 480.094 1133.94 480.508C1133.66 481.971 1135.12 481.881 1138.48 482.292C1139.47 482.399 1140.49 482.47 1141.49 482.506C1141.21 487.548 1141.31 492.605 1141.79 497.632C1141.9 498.935 1141.79 500.611 1142.86 501.592C1143.37 502.005 1143.98 502.269 1144.63 502.357C1145.28 502.445 1145.94 502.354 1146.54 502.092C1146.61 502.05 1146.67 501.981 1146.7 501.898C1146.73 501.815 1146.72 501.724 1146.68 501.646C1146.65 501.593 1146.61 501.55 1146.55 501.522C1146.5 501.493 1146.44 501.481 1146.38 501.485C1142.47 502.128 1142.81 499.702 1142.6 496.883C1142.38 493.762 1142.26 490.622 1142.2 487.465C1142.2 485.841 1142.2 484.165 1142.1 482.541C1145.24 482.616 1148.39 482.502 1151.52 482.202C1152.57 482.042 1152.6 482.042 1152.59 481.15C1161.37 480.961 1170.12 480.09 1178.77 478.546C1178.93 481.4 1180.34 478.992 1178.99 471.5L1180.77 471.286C1181.17 473.771 1181.42 476.279 1181.5 478.795C1181.52 478.852 1181.55 478.903 1181.6 478.939C1181.64 478.975 1181.7 478.994 1181.76 478.994C1181.82 478.994 1181.88 478.975 1181.92 478.939C1181.97 478.903 1182 478.852 1182.02 478.795C1182.04 478.498 1182.04 478.201 1182.02 477.904C1186.51 477.029 1190.94 475.977 1195.36 474.728C1194.54 475.085 1191.79 475.906 1191.44 476.744C1190.44 479.045 1197.02 478.528 1198.02 478.403C1199.24 478.228 1200.44 477.916 1201.59 477.475C1200.73 478.831 1199.8 480.169 1198.93 481.471C1196.59 484.646 1200.71 484.45 1205.37 481.043V486.912C1205.37 487.197 1205.89 487.233 1205.9 486.912C1206.05 484.718 1206.12 482.541 1206.12 480.365C1208.24 478.549 1210.24 476.601 1212.11 474.532C1213.77 475.121 1213.61 474.8 1218.62 472.748C1204.17 495.099 1182.71 512.991 1156.71 520.091C1155.37 520.447 1155.97 520.59 1154.48 520.091C1114.16 505.071 1087.41 474.782 1071.87 435.288C1082.98 438.428 1094.24 436.091 1104.39 430.882ZM1202.69 476.28C1197.2 479.009 1189.92 477.796 1192.83 476.691C1194.87 475.823 1196.86 474.815 1198.77 473.676C1199.65 473.496 1200.51 473.208 1201.32 472.82C1201.37 472.804 1201.41 472.779 1201.45 472.744C1201.49 472.709 1201.52 472.667 1201.54 472.619C1201.56 472.572 1201.57 472.521 1201.57 472.469C1201.57 472.417 1201.56 472.366 1201.53 472.32C1201.52 472.271 1201.49 472.225 1201.46 472.187C1201.42 472.148 1201.38 472.117 1201.33 472.095C1201.29 472.073 1201.24 472.061 1201.18 472.06C1201.13 472.059 1201.08 472.069 1201.03 472.088C1197.99 473.359 1194.62 473.652 1191.4 472.927C1190.85 472.837 1190.44 472.73 1190.96 472.106C1191.47 471.482 1199.36 470.126 1203.57 465.203C1205.21 468.964 1207.99 472.114 1211.52 474.211C1208.93 477.625 1205.63 480.432 1201.84 482.434C1200.37 483.112 1198.07 484.004 1199.77 481.65C1200.81 480.227 1201.73 478.724 1202.53 477.154C1203.78 476.619 1202.96 476.138 1202.67 476.28H1202.69ZM1213.2 474.033C1211.01 473.003 1209.06 471.53 1207.47 469.706C1205.88 467.882 1204.68 465.747 1203.96 463.437C1206 460.476 1207.79 457.35 1209.31 454.09C1211.93 460.722 1217.06 466.054 1223.58 468.931C1220.39 471.127 1216.89 472.845 1213.2 474.033ZM1205.96 458.264C1205.62 447.186 1204.76 428.242 1203.05 417.236C1207.95 419.642 1212.66 422.421 1217.14 425.549C1215.34 437.015 1211.56 448.079 1205.96 458.246V458.264ZM1265.64 352.288C1264.91 373.964 1262.01 395.512 1256.99 416.612C1256.38 407.844 1252.9 399.521 1247.09 392.923C1251.38 362.452 1252.58 331.625 1250.66 300.914C1250.66 300.432 1250.16 300.539 1249.84 300.539C1214.16 300.985 1179.95 283.379 1158.63 254.981C1158.36 254.606 1157.01 252.073 1156.4 252.787C1144.58 267.253 1129.74 278.964 1112.92 287.104C1096.1 295.244 1077.71 299.616 1059.02 299.915C1058.47 299.915 1055.83 299.648 1055.78 300.397C1054.39 319.523 1054.13 338.714 1054.99 357.871C1055.51 367.99 1056.55 378.076 1058.1 388.089C1057.49 390.929 1056.99 393.791 1056.6 396.669C1055.62 403.804 1054.81 412.473 1056.78 419.858C1058.88 427.618 1062.82 432.006 1070.35 434.503C1079.27 457.693 1092.99 479.206 1111.61 495.902C1123.94 506.962 1138.53 516.773 1154.42 521.732C1156.21 522.267 1155.78 522.338 1157.38 521.91C1171.29 517.919 1184.18 510.977 1195.16 501.557C1205.07 493.002 1213.59 482.958 1220.41 471.785C1223.64 469.922 1226.72 467.811 1229.63 465.47C1235.94 460.476 1241.62 455.784 1246.36 449.238C1215.46 524.247 1158.06 534.575 1156.62 535.842C1101.43 518.467 1066.93 472.873 1051.37 418.717C1038.89 375.138 1039.37 329.758 1044.88 285.127C1077.83 287.874 1128.24 272.641 1157.94 232.184C1161.9 239.605 1197.98 290.586 1264.93 289.462C1265.27 310.547 1266.55 331.185 1265.63 352.288H1265.64Z" fill="white"/>
<path d="M1128.86 318.431C1128.86 318.681 1129.06 318.912 1129.24 318.716C1130.7 317.057 1132.37 317.61 1132.66 317.2C1132.66 317.2 1132.86 316.915 1132.66 316.772C1131.64 315.844 1129.36 317.325 1128.86 318.431ZM1319.55 383.897C1306.52 383.795 1293.49 384.623 1280.57 386.376C1280.06 386.376 1280.18 387.232 1280.72 387.179C1293.6 385.948 1306.47 385.609 1319.41 385.395C1320.37 385.431 1320.57 383.897 1319.55 383.897ZM1145 321.677C1144.11 324.585 1145.56 325.245 1145.95 323.854C1146.34 322.462 1145.29 320.785 1145 321.677ZM1130.86 321.338C1129.82 323.871 1131.59 325.459 1131.68 322.658C1131.71 321.214 1131.14 320.768 1130.86 321.338ZM1143.92 317.361C1144.5 317.539 1146.15 316.736 1147.84 318.128C1148.05 318.306 1148.38 317.931 1148.16 317.735C1145.41 315.149 1142.47 316.915 1143.92 317.361Z" fill="white"/>
<circle opacity="0.2" cx="1248" cy="384" r="474.5" stroke="white"/>
<circle opacity="0.2" cx="1248.5" cy="383.5" r="328" stroke="white"/>
</g>
</svg>
